<svg width="627" height="515" viewBox="0 0 627 515" fill="none" xmlns="http://www.w3.org/2000/svg">
<g clip-path="url(#clip0_92_484)">
<path d="M171.12 482.994C171.12 483.552 171.446 484 171.852 484H536.831C537.24 484 537.563 483.552 537.563 482.994C537.563 482.435 537.237 481.987 536.831 481.987H171.852C171.446 481.988 171.12 482.436 171.12 482.994Z" fill="#CCCCCC"/>
<path d="M303.175 479.676H290.144V481.833H303.175V479.676Z" fill="#B6B3C5"/>
<path d="M418.536 480.037H405.505V482.193H418.536V480.037Z" fill="#B6B3C5"/>
<path d="M373.025 383.688C372.3 387.805 370.039 391.547 366.646 394.247C363.253 396.947 358.949 398.428 354.5 398.428C350.051 398.428 345.746 396.947 342.353 394.247C338.96 391.547 336.7 387.805 335.974 383.688H288.578V480.035H420.423V383.688H373.025Z" fill="#D6D6E3"/>
<path d="M420.805 472.401H288.962V475.755H420.805V472.401Z" fill="#090814"/>
<path d="M619.65 386.206H89.3501C87.4014 386.204 85.5331 385.477 84.1552 384.184C82.7772 382.892 82.0022 381.139 82 379.312V95.432C82.002 93.604 82.777 91.8514 84.1549 90.5588C85.5329 89.2661 87.4012 88.539 89.3501 88.537H619.65C621.599 88.5392 623.467 89.2663 624.845 90.5587C626.223 91.8512 626.998 93.6036 627 95.4314V379.312C626.998 381.139 626.223 382.892 624.845 384.184C623.467 385.477 621.599 386.204 619.65 386.206Z" fill="#090814"/>
<mask id="mask0_92_484" style="mask-type:alpha" maskUnits="userSpaceOnUse" x="95" y="100" width="519" height="275">
<path d="M613.969 100.04H95.0303V374.701H613.969V100.04Z" fill="white"/>
</mask>
<g mask="url(#mask0_92_484)">
<path d="M613.969 100.04H95.0303V374.701H613.969V100.04Z" fill="#BDD3E0"/>
<path d="M193.025 100H96.9749C95.8842 100 95 104.006 95 108.948V366.052C95 370.994 95.8842 375 96.9749 375H193.025C194.116 375 195 370.994 195 366.052V108.948C195 104.006 194.116 100 193.025 100Z" fill="#F2F2F2"/>
<path d="M174.065 163.872L111.151 164.127C109.17 164.135 107.569 165.856 107.574 167.972L107.584 171.547C107.59 173.663 109.201 175.371 111.182 175.363L174.096 175.109C176.077 175.101 177.679 173.379 177.673 171.263L177.663 167.689C177.658 165.573 176.047 163.864 174.065 163.872Z" fill="#17A589"/>
<path d="M168.721 168.006L128.994 168.105C127.743 168.108 126.731 168.58 126.734 169.159L126.738 170.137C126.741 170.716 127.757 171.182 129.008 171.179L168.735 171.08C169.986 171.077 170.998 170.605 170.995 170.026L170.991 169.048C170.988 168.469 169.972 168.003 168.721 168.006Z" fill="white"/>
<path d="M123.087 168.082L113.544 168.105C113.244 168.106 113.002 168.576 113.005 169.155L113.009 170.133C113.012 170.712 113.257 171.181 113.558 171.18L123.1 171.156C123.401 171.155 123.642 170.685 123.64 170.107L123.635 169.128C123.633 168.55 123.387 168.081 123.087 168.082Z" fill="white"/>
<path d="M168.721 189.006L128.994 189.105C127.743 189.108 126.731 189.58 126.734 190.159L126.738 191.137C126.741 191.716 127.757 192.182 129.008 192.179L168.735 192.08C169.986 192.077 170.998 191.605 170.995 191.026L170.991 190.048C170.988 189.469 169.972 189.003 168.721 189.006Z" fill="#17A589"/>
<path d="M123.087 189.082L113.544 189.105C113.244 189.106 113.002 189.576 113.005 190.155L113.009 191.133C113.012 191.712 113.257 192.181 113.558 192.18L123.1 192.156C123.401 192.155 123.642 191.685 123.64 191.107L123.635 190.128C123.633 189.55 123.387 189.081 123.087 189.082Z" fill="#17A589"/>
<path d="M168.721 203.006L128.994 203.105C127.743 203.108 126.731 203.58 126.734 204.159L126.738 205.137C126.741 205.716 127.757 206.182 129.008 206.179L168.735 206.08C169.986 206.077 170.998 205.605 170.995 205.026L170.991 204.048C170.988 203.469 169.972 203.003 168.721 203.006Z" fill="#17A589"/>
<path d="M123.087 203.082L113.544 203.105C113.244 203.106 113.002 203.576 113.005 204.155L113.009 205.133C113.012 205.712 113.257 206.181 113.558 206.18L123.1 206.156C123.401 206.155 123.642 205.685 123.64 205.107L123.635 204.128C123.633 203.55 123.387 203.081 123.087 203.082Z" fill="#17A589"/>
<path d="M168.721 217.006L128.994 217.105C127.743 217.108 126.731 217.58 126.734 218.159L126.738 219.137C126.741 219.716 127.757 220.182 129.008 220.179L168.735 220.08C169.986 220.077 170.998 219.605 170.995 219.026L170.991 218.048C170.988 217.469 169.972 217.003 168.721 217.006Z" fill="#17A589"/>
<path d="M123.087 217.082L113.544 217.105C113.244 217.106 113.002 217.576 113.005 218.155L113.009 219.133C113.012 219.712 113.257 220.181 113.558 220.18L123.1 220.156C123.401 220.155 123.642 219.685 123.64 219.107L123.635 218.128C123.633 217.55 123.387 217.081 123.087 217.082Z" fill="#17A589"/>
<path d="M168.721 231.006L128.994 231.105C127.743 231.108 126.731 231.58 126.734 232.159L126.738 233.137C126.741 233.716 127.757 234.182 129.008 234.179L168.735 234.08C169.986 234.077 170.998 233.605 170.995 233.026L170.991 232.048C170.988 231.469 169.972 231.003 168.721 231.006Z" fill="#17A589"/>
<path d="M123.087 231.082L113.544 231.105C113.244 231.106 113.002 231.576 113.005 232.155L113.009 233.133C113.012 233.712 113.257 234.181 113.558 234.18L123.1 234.156C123.401 234.155 123.642 233.685 123.64 233.107L123.635 232.128C123.633 231.55 123.387 231.081 123.087 231.082Z" fill="#17A589"/>
<path d="M168.721 350.006L128.994 350.105C127.743 350.108 126.731 350.58 126.734 351.159L126.738 352.137C126.741 352.716 127.757 353.182 129.008 353.179L168.735 353.08C169.986 353.077 170.998 352.605 170.995 352.026L170.991 351.048C170.988 350.469 169.972 350.003 168.721 350.006Z" fill="#17A589"/>
<path d="M123.087 350.082L113.544 350.105C113.244 350.106 113.002 350.576 113.005 351.155L113.009 352.133C113.012 352.712 113.257 353.181 113.558 353.18L123.1 353.156C123.401 353.155 123.642 352.685 123.64 352.107L123.635 351.128C123.633 350.55 123.387 350.081 123.087 350.082Z" fill="#17A589"/>
<path d="M167.891 112.139L110.818 112.37C109.021 112.378 107.566 113.204 107.569 114.216L107.574 115.925C107.576 116.937 109.036 117.752 110.833 117.744L167.905 117.513C169.703 117.506 171.158 116.68 171.155 115.668L171.15 113.959C171.147 112.947 169.688 112.132 167.891 112.139Z" fill="#0B2B3F"/>
<path d="M140.653 120.123L109.349 120.25C108.363 120.254 107.566 121.078 107.569 122.089L107.574 123.799C107.576 124.811 108.378 125.628 109.364 125.624L140.668 125.497C141.654 125.493 142.451 124.67 142.448 123.658L142.444 121.948C142.441 120.936 141.639 120.119 140.653 120.123Z" fill="#0B2B3F"/>
<path d="M614 100H186V139H614V100Z" fill="white"/>
<rect x="206" y="114" width="136" height="11" rx="5.5" fill="#BDD3E0"/>
<path d="M332.05 117.59L324.965 117.618C323.88 117.623 323.002 118.272 323.004 119.069L323.008 120.416C323.01 121.213 323.891 121.855 324.977 121.851L332.062 121.822C333.147 121.817 334.025 121.168 334.023 120.371L334.02 119.025C334.017 118.228 333.136 117.585 332.05 117.59Z" fill="#E6E6E6"/>
<circle cx="586.5" cy="119.5" r="12.5" fill="#17A589"/>
<path d="M565.422 116.853L530.965 116.992C529.88 116.996 529.002 117.82 529.005 118.832L529.01 120.542C529.012 121.554 529.894 122.37 530.98 122.366L565.436 122.227C566.521 122.222 567.399 121.398 567.396 120.386L567.391 118.677C567.389 117.665 566.507 116.848 565.422 116.853Z" fill="#17A589"/>
<path d="M593.757 215H423.243C417.586 215 413 219.431 413 224.898V346.102C413 351.569 417.586 356 423.243 356H593.757C599.414 356 604 351.569 604 346.102V224.898C604 219.431 599.414 215 593.757 215Z" fill="#F2F2F2"/>
<path d="M436.5 299L484.5 251.5L517 279L579 240.5" stroke="#A2C2D7" stroke-width="2"/>
<circle cx="437.5" cy="297.5" r="3.5" fill="#A2C2D7"/>
<circle cx="484.5" cy="251.5" r="3.5" fill="#A2C2D7"/>
<circle cx="517.5" cy="278.5" r="3.5" fill="#A2C2D7"/>
<circle cx="578.5" cy="240.5" r="3.5" fill="#A2C2D7"/>
<rect x="421" y="313" width="135" height="5" rx="2.5" fill="#A2C2D7"/>
<rect x="421" y="322" width="168" height="5" rx="2.5" fill="#A2C2D7"/>
<rect x="421" y="331" width="81" height="5" rx="2.5" fill="#A2C2D7"/>
<rect x="421" y="340" width="111" height="5" rx="2.5" fill="#A2C2D7"/>
<path d="M291.636 215H210C207.239 215 205 217.239 205 220V275.668C205 278.429 207.239 280.668 210 280.668H291.636C294.398 280.668 296.636 278.429 296.636 275.668V220C296.636 217.239 294.398 215 291.636 215Z" fill="white"/>
<path d="M252.7 253.829L225.71 260.349C224.794 260.569 223.823 260.44 223.009 259.989C222.195 259.538 221.605 258.803 221.369 257.945L213.206 228.212C212.971 227.353 213.109 226.442 213.59 225.679C214.07 224.915 214.854 224.362 215.769 224.14L240.879 218.075L247.306 220.773L255.264 249.756C255.499 250.615 255.361 251.526 254.88 252.29C254.4 253.054 253.616 253.608 252.7 253.829Z" fill="#F2F2F2"/>
<path d="M216.028 225.071C215.377 225.23 214.819 225.624 214.477 226.167C214.134 226.711 214.036 227.36 214.203 227.971L222.365 257.704C222.534 258.315 222.954 258.839 223.534 259.16C224.113 259.481 224.805 259.573 225.457 259.416L252.447 252.897C253.099 252.739 253.657 252.344 253.999 251.801C254.341 251.257 254.439 250.609 254.272 249.997L246.439 221.462L240.79 219.091L216.028 225.071Z" fill="white"/>
<path d="M247.237 220.926L243.06 221.935C242.755 222.009 242.432 221.966 242.16 221.816C241.889 221.665 241.693 221.42 241.614 221.134L240.82 218.24C240.816 218.228 240.817 218.215 240.821 218.202C240.825 218.19 240.833 218.179 240.844 218.17C240.854 218.162 240.867 218.156 240.881 218.154C240.895 218.152 240.909 218.154 240.921 218.159L247.248 220.795C247.261 220.802 247.272 220.811 247.279 220.823C247.286 220.835 247.289 220.849 247.288 220.863C247.286 220.876 247.281 220.889 247.272 220.9C247.263 220.911 247.251 220.919 247.237 220.923L247.237 220.926Z" fill="#F2F2F2"/>
<path d="M245.04 246.317L232.75 249.285C232.675 249.303 232.596 249.308 232.519 249.297C232.442 249.287 232.367 249.263 232.3 249.225C232.233 249.188 232.174 249.139 232.127 249.081C232.081 249.022 232.046 248.956 232.027 248.885C232.008 248.814 232.003 248.74 232.014 248.668C232.025 248.595 232.051 248.526 232.091 248.463C232.13 248.4 232.183 248.345 232.245 248.301C232.308 248.257 232.379 248.225 232.454 248.207L244.742 245.239C244.818 245.22 244.896 245.216 244.974 245.226C245.051 245.237 245.125 245.261 245.192 245.298C245.259 245.336 245.318 245.385 245.365 245.443C245.412 245.502 245.446 245.568 245.465 245.639C245.485 245.71 245.489 245.784 245.478 245.856C245.467 245.928 245.441 245.998 245.402 246.061C245.362 246.124 245.309 246.179 245.247 246.223C245.185 246.267 245.114 246.299 245.038 246.317L245.04 246.317Z" fill="#CCCCCC"/>
<path d="M247.912 247.564L233.252 251.103C233.1 251.14 232.938 251.118 232.802 251.043C232.666 250.968 232.568 250.846 232.529 250.702C232.49 250.559 232.513 250.408 232.593 250.28C232.673 250.153 232.803 250.061 232.956 250.024L247.616 246.483C247.768 246.446 247.93 246.468 248.066 246.543C248.201 246.618 248.3 246.741 248.339 246.884C248.378 247.027 248.355 247.178 248.275 247.306C248.195 247.433 248.064 247.525 247.912 247.562V247.564Z" fill="#CCCCCC"/>
<path d="M227.737 252.859C228.895 252.859 229.835 251.978 229.835 250.891C229.835 249.805 228.895 248.923 227.737 248.923C226.578 248.923 225.639 249.805 225.639 250.891C225.639 251.978 226.578 252.859 227.737 252.859Z" fill="#E6E6E6"/>
<path d="M243.733 241.166L227.413 245.106C226.941 245.219 226.441 245.152 226.022 244.919C225.603 244.687 225.299 244.309 225.176 243.867L221.757 231.403C221.637 230.961 221.709 230.492 221.956 230.098C222.203 229.705 222.607 229.42 223.078 229.305L239.398 225.365C239.869 225.252 240.369 225.319 240.788 225.551C241.207 225.783 241.512 226.161 241.634 226.603L245.054 239.066C245.175 239.508 245.104 239.978 244.856 240.372C244.608 240.765 244.204 241.051 243.733 241.166Z" fill="white"/>
<path d="M243.733 241.166L227.413 245.106C226.941 245.219 226.441 245.152 226.022 244.919C225.603 244.687 225.299 244.309 225.176 243.867L221.757 231.403C221.637 230.961 221.709 230.492 221.956 230.098C222.203 229.705 222.607 229.42 223.078 229.305L239.398 225.365C239.869 225.252 240.369 225.319 240.788 225.551C241.207 225.783 241.512 226.161 241.634 226.603L245.054 239.066C245.175 239.508 245.104 239.978 244.856 240.372C244.608 240.765 244.204 241.051 243.733 241.166ZM223.134 229.503C222.718 229.604 222.362 229.856 222.144 230.203C221.925 230.55 221.863 230.964 221.969 231.354L225.389 243.817C225.497 244.207 225.765 244.541 226.135 244.746C226.505 244.951 226.946 245.01 227.362 244.91L243.682 240.969C244.098 240.868 244.455 240.617 244.673 240.27C244.891 239.923 244.954 239.509 244.847 239.118L241.428 226.656C241.32 226.266 241.052 225.931 240.682 225.726C240.312 225.522 239.87 225.463 239.454 225.563L223.134 229.503Z" fill="#E6E6E6"/>
<path d="M238.569 229.557L230.332 231.545C230.26 231.564 230.183 231.557 230.117 231.525C230.05 231.492 230 231.438 229.975 231.371C229.963 231.337 229.959 231.301 229.963 231.265C229.967 231.229 229.978 231.194 229.997 231.162C230.016 231.13 230.041 231.103 230.072 231.08C230.102 231.058 230.137 231.042 230.174 231.033L238.559 229.009C238.9 229.17 238.808 229.499 238.568 229.557H238.569Z" fill="#F2F2F2"/>
<path d="M238.941 230.913L230.705 232.901C230.633 232.92 230.556 232.913 230.489 232.88C230.423 232.848 230.372 232.793 230.347 232.727C230.336 232.693 230.332 232.656 230.335 232.62C230.339 232.584 230.351 232.549 230.37 232.518C230.388 232.486 230.414 232.458 230.444 232.436C230.475 232.414 230.51 232.398 230.547 232.389L238.931 230.365C239.272 230.526 239.181 230.855 238.941 230.913H238.941Z" fill="#F2F2F2"/>
<path d="M229.136 234.102L226.623 234.709C226.541 234.729 226.454 234.718 226.381 234.677C226.308 234.637 226.255 234.571 226.234 234.494L225.47 231.711C225.448 231.634 225.461 231.553 225.504 231.484C225.547 231.416 225.617 231.366 225.699 231.346L228.213 230.739C228.295 230.719 228.382 230.731 228.455 230.771C228.528 230.811 228.581 230.877 228.602 230.954L229.366 233.737C229.387 233.814 229.375 233.896 229.332 233.964C229.289 234.033 229.219 234.082 229.136 234.102Z" fill="#E6E6E6"/>
<path d="M239.679 233.693L227.108 236.728C227.036 236.747 226.959 236.74 226.893 236.707C226.827 236.675 226.776 236.62 226.751 236.554C226.739 236.52 226.735 236.483 226.739 236.447C226.743 236.411 226.755 236.376 226.773 236.345C226.792 236.313 226.817 236.285 226.848 236.263C226.878 236.241 226.913 236.225 226.951 236.216L239.669 233.145C240.008 233.306 239.919 233.635 239.679 233.693Z" fill="#F2F2F2"/>
<path d="M240.051 235.049L227.48 238.084C227.408 238.103 227.332 238.095 227.265 238.063C227.199 238.031 227.148 237.976 227.123 237.91C227.111 237.876 227.107 237.839 227.111 237.803C227.115 237.767 227.127 237.732 227.145 237.701C227.164 237.669 227.19 237.641 227.22 237.619C227.251 237.597 227.286 237.581 227.323 237.572L240.041 234.501C240.38 234.659 240.291 234.991 240.051 235.049Z" fill="#F2F2F2"/>
<path d="M240.423 236.404L227.853 239.439C227.781 239.457 227.704 239.45 227.637 239.418C227.571 239.385 227.52 239.331 227.495 239.265C227.484 239.23 227.48 239.194 227.483 239.158C227.487 239.122 227.499 239.087 227.517 239.055C227.536 239.023 227.562 238.996 227.592 238.973C227.623 238.951 227.658 238.935 227.695 238.926L240.413 235.855C240.753 236.016 240.663 236.345 240.423 236.404Z" fill="#F2F2F2"/>
<path d="M240.795 237.758L228.225 240.793C228.153 240.812 228.076 240.805 228.009 240.772C227.943 240.74 227.892 240.685 227.867 240.619C227.856 240.585 227.852 240.548 227.855 240.512C227.859 240.476 227.871 240.441 227.89 240.41C227.908 240.378 227.934 240.35 227.964 240.328C227.995 240.306 228.03 240.29 228.067 240.281L240.785 237.21C241.126 237.371 241.036 237.7 240.795 237.758Z" fill="#F2F2F2"/>
<path d="M241.167 239.114L228.596 242.149C228.524 242.168 228.447 242.16 228.381 242.128C228.315 242.096 228.264 242.041 228.239 241.975C228.227 241.94 228.223 241.904 228.227 241.868C228.231 241.832 228.242 241.797 228.261 241.766C228.28 241.734 228.305 241.706 228.336 241.684C228.366 241.662 228.401 241.646 228.439 241.637L241.157 238.566C241.496 238.727 241.407 239.056 241.167 239.114Z" fill="#F2F2F2"/>
<path d="M227.891 251.578C227.845 251.589 227.798 251.586 227.754 251.569L227.183 251.342C227.156 251.332 227.132 251.316 227.112 251.297C227.092 251.278 227.076 251.255 227.065 251.23C227.054 251.205 227.049 251.178 227.049 251.151C227.05 251.124 227.055 251.098 227.067 251.073C227.078 251.048 227.094 251.025 227.115 251.007C227.135 250.988 227.16 250.973 227.186 250.963C227.213 250.952 227.241 250.947 227.27 250.948C227.299 250.948 227.327 250.953 227.354 250.964L227.724 251.112L228.21 250.041C228.221 250.016 228.237 249.993 228.258 249.975C228.279 249.956 228.303 249.941 228.329 249.931C228.356 249.92 228.385 249.915 228.413 249.916C228.442 249.916 228.471 249.921 228.497 249.932C228.55 249.953 228.593 249.994 228.614 250.044C228.636 250.095 228.636 250.151 228.613 250.201L228.042 251.46C228.029 251.489 228.009 251.515 227.983 251.536C227.958 251.556 227.927 251.571 227.895 251.579L227.891 251.578Z" fill="white"/>
<path d="M263.053 265.158H235.181C234.236 265.157 233.33 264.804 232.662 264.177C231.994 263.551 231.618 262.701 231.617 261.814V231.111C231.618 230.225 231.994 229.375 232.662 228.748C233.33 228.121 234.236 227.769 235.181 227.768H261.11L266.617 231.885V261.814C266.616 262.701 266.24 263.55 265.572 264.177C264.904 264.804 263.998 265.157 263.053 265.158Z" fill="#E6E6E6"/>
<path d="M235.184 228.731C234.511 228.732 233.866 228.983 233.39 229.429C232.914 229.876 232.646 230.481 232.646 231.113V261.815C232.646 262.447 232.914 263.052 233.39 263.499C233.866 263.945 234.511 264.196 235.184 264.197H263.055C263.728 264.196 264.374 263.945 264.85 263.499C265.325 263.052 265.593 262.447 265.594 261.815V232.349L260.755 228.731H235.184Z" fill="white"/>
<path d="M257.631 237.659H244.939C244.781 237.659 244.63 237.6 244.519 237.496C244.408 237.391 244.345 237.25 244.345 237.102C244.345 236.954 244.408 236.812 244.519 236.708C244.63 236.604 244.781 236.545 244.939 236.545H257.626C257.783 236.545 257.934 236.604 258.045 236.708C258.157 236.812 258.219 236.954 258.219 237.102C258.219 237.25 258.157 237.391 258.045 237.496C257.934 237.6 257.783 237.659 257.626 237.659H257.631Z" fill="#17A589"/>
<path d="M260.081 239.538H244.939C244.781 239.538 244.63 239.48 244.519 239.375C244.408 239.271 244.345 239.129 244.345 238.981C244.345 238.834 244.408 238.692 244.519 238.587C244.63 238.483 244.781 238.424 244.939 238.424H260.081C260.239 238.424 260.39 238.483 260.501 238.587C260.612 238.692 260.675 238.834 260.675 238.981C260.675 239.129 260.612 239.271 260.501 239.375C260.39 239.48 260.239 239.538 260.081 239.538Z" fill="#17A589"/>
<path d="M257.631 244.967H244.945C244.787 244.967 244.636 245.026 244.525 245.13C244.414 245.235 244.351 245.377 244.351 245.524C244.351 245.672 244.414 245.814 244.525 245.918C244.636 246.022 244.787 246.081 244.945 246.081H257.631C257.789 246.081 257.94 246.022 258.051 245.918C258.163 245.814 258.225 245.672 258.225 245.524C258.225 245.377 258.163 245.235 258.051 245.13C257.94 245.026 257.789 244.967 257.631 244.967Z" fill="#CCCCCC"/>
<path d="M260.078 246.847H244.943C244.785 246.847 244.634 246.905 244.523 247.01C244.412 247.114 244.349 247.256 244.349 247.403C244.349 247.551 244.412 247.693 244.523 247.797C244.634 247.902 244.785 247.96 244.943 247.96H260.078C260.236 247.96 260.387 247.902 260.498 247.797C260.609 247.693 260.672 247.551 260.672 247.403C260.672 247.256 260.609 247.114 260.498 247.01C260.387 246.905 260.236 246.847 260.078 246.847Z" fill="#CCCCCC"/>
<path d="M257.631 254.5H244.939C244.781 254.5 244.63 254.441 244.519 254.337C244.408 254.232 244.345 254.09 244.345 253.943C244.345 253.795 244.408 253.653 244.519 253.549C244.63 253.444 244.781 253.386 244.939 253.386H257.626C257.783 253.386 257.934 253.444 258.045 253.549C258.157 253.653 258.219 253.795 258.219 253.943C258.219 254.09 258.157 254.232 258.045 254.337C257.934 254.441 257.783 254.5 257.626 254.5H257.631Z" fill="#CCCCCC"/>
<path d="M260.081 256.381H244.939C244.781 256.381 244.63 256.323 244.519 256.218C244.408 256.114 244.345 255.972 244.345 255.825C244.345 255.677 244.408 255.535 244.519 255.431C244.63 255.326 244.781 255.268 244.939 255.268H260.081C260.239 255.268 260.39 255.326 260.501 255.431C260.612 255.535 260.675 255.677 260.675 255.825C260.675 255.972 260.612 256.114 260.501 256.218C260.39 256.323 260.239 256.381 260.081 256.381Z" fill="#CCCCCC"/>
<path d="M239.659 240.01C240.817 240.01 241.757 239.129 241.757 238.042C241.757 236.955 240.817 236.074 239.659 236.074C238.5 236.074 237.561 236.955 237.561 238.042C237.561 239.129 238.5 240.01 239.659 240.01Z" fill="#17A589"/>
<path d="M239.451 238.791C239.404 238.792 239.358 238.777 239.32 238.751L238.827 238.397C238.781 238.364 238.751 238.315 238.743 238.26C238.735 238.206 238.751 238.152 238.786 238.108C238.822 238.065 238.874 238.037 238.932 238.03C238.989 238.023 239.048 238.037 239.094 238.07L239.413 238.3L240.168 237.376C240.203 237.333 240.256 237.305 240.313 237.298C240.371 237.291 240.429 237.305 240.475 237.338C240.521 237.372 240.551 237.421 240.558 237.475C240.566 237.529 240.55 237.583 240.515 237.626L239.628 238.714C239.608 238.739 239.581 238.759 239.551 238.773C239.521 238.787 239.488 238.794 239.454 238.794L239.451 238.791Z" fill="white"/>
<path d="M241.972 246.464C241.972 246.723 241.917 246.978 241.812 247.217C241.707 247.456 241.552 247.673 241.357 247.856C241.162 248.039 240.931 248.184 240.676 248.283C240.422 248.382 240.149 248.433 239.873 248.433C239.855 248.434 239.838 248.434 239.82 248.433C239.407 248.423 239.007 248.299 238.669 248.077C238.331 247.854 238.07 247.544 237.92 247.183C237.769 246.823 237.736 246.429 237.823 246.05C237.91 245.672 238.114 245.326 238.409 245.056C238.705 244.786 239.079 244.603 239.484 244.531C239.89 244.46 240.309 244.502 240.689 244.652C241.069 244.803 241.394 245.055 241.622 245.378C241.85 245.7 241.972 246.079 241.972 246.466V246.464Z" fill="#17A589"/>
<path d="M239.659 256.853C240.817 256.853 241.757 255.972 241.757 254.885C241.757 253.798 240.817 252.917 239.659 252.917C238.5 252.917 237.561 253.798 237.561 254.885C237.561 255.972 238.5 256.853 239.659 256.853Z" fill="#CCCCCC"/>
<path d="M266.51 232.017H262.195C261.88 232.017 261.578 231.899 261.355 231.691C261.132 231.482 261.007 231.198 261.007 230.903V227.914C261.007 227.901 261.011 227.889 261.019 227.878C261.026 227.867 261.037 227.858 261.049 227.852C261.062 227.847 261.076 227.844 261.09 227.846C261.103 227.847 261.116 227.852 261.127 227.86L266.554 231.891C266.566 231.9 266.575 231.912 266.579 231.926C266.583 231.94 266.583 231.955 266.578 231.968C266.572 231.982 266.563 231.994 266.55 232.002C266.538 232.01 266.523 232.015 266.508 232.015L266.51 232.017Z" fill="#CCCCCC"/>
<path d="M244.349 245.525C244.349 245.377 244.412 245.235 244.523 245.131C244.634 245.026 244.785 244.968 244.943 244.967H248.105C248.29 245.32 248.421 245.695 248.495 246.081H244.943C244.785 246.081 244.635 246.023 244.523 245.918C244.412 245.814 244.349 245.673 244.349 245.525V245.525Z" fill="#17A589"/>
<path d="M248.568 246.847C248.568 247.223 248.515 247.597 248.411 247.96H244.943C244.785 247.96 244.634 247.902 244.523 247.797C244.412 247.693 244.349 247.551 244.349 247.403C244.349 247.256 244.412 247.114 244.523 247.01C244.634 246.905 244.785 246.847 244.943 246.847H248.568Z" fill="#17A589"/>
<path d="M282.367 275.056C282.285 275.182 282.178 275.292 282.051 275.379C281.924 275.466 281.78 275.529 281.627 275.563C281.474 275.598 281.315 275.604 281.16 275.581C281.004 275.559 280.855 275.507 280.721 275.43L266.745 267.433C266.474 267.278 266.279 267.028 266.204 266.738C266.129 266.449 266.18 266.143 266.346 265.888C266.511 265.634 266.777 265.451 267.086 265.381C267.395 265.311 267.721 265.358 267.992 265.514L281.968 273.511C282.103 273.588 282.22 273.689 282.312 273.808C282.405 273.927 282.472 274.063 282.509 274.206C282.546 274.35 282.553 274.498 282.528 274.644C282.504 274.79 282.449 274.93 282.367 275.056Z" fill="#0B2B3F"/>
<path d="M268.392 267.06C267.405 268.578 265.96 269.788 264.241 270.535C262.521 271.283 260.603 271.536 258.731 271.261C256.858 270.987 255.114 270.197 253.72 268.993C252.325 267.789 251.343 266.224 250.896 264.496C250.45 262.768 250.56 260.955 251.213 259.286C251.865 257.617 253.03 256.166 254.562 255.118C256.093 254.07 257.921 253.472 259.815 253.398C261.708 253.325 263.583 253.78 265.201 254.706C267.371 255.947 268.926 257.947 269.524 260.263C270.122 262.58 269.715 265.025 268.392 267.06ZM254.075 258.871C253.335 260.009 252.971 261.328 253.03 262.66C253.089 263.992 253.567 265.278 254.405 266.355C255.243 267.432 256.403 268.252 257.737 268.711C259.072 269.17 260.522 269.247 261.903 268.933C263.285 268.619 264.536 267.928 265.499 266.947C266.461 265.966 267.092 264.739 267.312 263.422C267.531 262.105 267.329 260.756 266.731 259.546C266.134 258.337 265.167 257.32 263.953 256.626C263.148 256.165 262.253 255.857 261.32 255.721C260.388 255.584 259.436 255.621 258.518 255.829C257.601 256.038 256.737 256.414 255.974 256.936C255.212 257.458 254.566 258.115 254.075 258.871Z" fill="#0B2B3F"/>
<path d="M393.636 215H312C309.239 215 307 217.239 307 220V275.668C307 278.429 309.239 280.668 312 280.668H393.636C396.398 280.668 398.636 278.429 398.636 275.668V220C398.636 217.239 396.398 215 393.636 215Z" fill="white"/>
<path d="M393.636 291H312C309.239 291 307 293.239 307 296V351.668C307 354.429 309.239 356.668 312 356.668H393.636C396.398 356.668 398.636 354.429 398.636 351.668V296C398.636 293.239 396.398 291 393.636 291Z" fill="white"/>
<path d="M354.7 329.829L327.71 336.349C326.794 336.569 325.823 336.44 325.009 335.989C324.195 335.538 323.605 334.803 323.369 333.945L315.206 304.212C314.971 303.353 315.109 302.442 315.59 301.679C316.07 300.915 316.854 300.362 317.769 300.14L342.879 294.075L349.306 296.773L357.264 325.756C357.499 326.615 357.361 327.526 356.88 328.29C356.4 329.054 355.616 329.608 354.7 329.829Z" fill="#F2F2F2"/>
<path d="M318.028 301.071C317.377 301.23 316.819 301.624 316.477 302.167C316.134 302.711 316.036 303.36 316.203 303.971L324.365 333.704C324.534 334.315 324.954 334.839 325.534 335.16C326.113 335.481 326.805 335.573 327.457 335.416L354.447 328.897C355.099 328.739 355.657 328.344 355.999 327.801C356.341 327.257 356.439 326.609 356.272 325.997L348.439 297.462L342.79 295.091L318.028 301.071Z" fill="white"/>
<path d="M349.237 296.926L345.06 297.935C344.755 298.009 344.432 297.966 344.16 297.816C343.889 297.665 343.693 297.42 343.614 297.134L342.82 294.24C342.816 294.228 342.817 294.215 342.821 294.202C342.825 294.19 342.833 294.179 342.844 294.17C342.854 294.162 342.867 294.156 342.881 294.154C342.895 294.152 342.909 294.154 342.921 294.159L349.248 296.795C349.261 296.802 349.272 296.811 349.279 296.823C349.286 296.835 349.289 296.849 349.288 296.863C349.286 296.876 349.281 296.889 349.272 296.9C349.263 296.911 349.251 296.919 349.237 296.923L349.237 296.926Z" fill="#F2F2F2"/>
<path d="M347.04 322.317L334.75 325.285C334.675 325.303 334.596 325.308 334.519 325.297C334.442 325.287 334.367 325.263 334.3 325.225C334.233 325.188 334.174 325.139 334.127 325.081C334.081 325.022 334.046 324.956 334.027 324.885C334.008 324.814 334.003 324.74 334.014 324.668C334.025 324.595 334.051 324.526 334.091 324.463C334.13 324.4 334.183 324.345 334.245 324.301C334.308 324.257 334.379 324.225 334.454 324.207L346.742 321.239C346.818 321.22 346.896 321.216 346.974 321.226C347.051 321.237 347.125 321.261 347.192 321.298C347.259 321.336 347.318 321.385 347.365 321.443C347.412 321.502 347.446 321.568 347.465 321.639C347.485 321.71 347.489 321.784 347.478 321.856C347.467 321.928 347.441 321.998 347.402 322.061C347.362 322.124 347.309 322.179 347.247 322.223C347.185 322.267 347.114 322.299 347.038 322.317L347.04 322.317Z" fill="#CCCCCC"/>
<path d="M349.912 323.564L335.252 327.103C335.1 327.14 334.938 327.118 334.802 327.043C334.666 326.968 334.568 326.846 334.529 326.703C334.49 326.56 334.513 326.408 334.593 326.281C334.673 326.153 334.803 326.061 334.956 326.024L349.616 322.483C349.768 322.446 349.93 322.468 350.066 322.543C350.201 322.618 350.3 322.741 350.339 322.884C350.378 323.027 350.355 323.179 350.275 323.306C350.195 323.433 350.064 323.525 349.912 323.562V323.564Z" fill="#CCCCCC"/>
<path d="M329.737 328.859C330.895 328.859 331.835 327.978 331.835 326.891C331.835 325.804 330.895 324.923 329.737 324.923C328.578 324.923 327.639 325.804 327.639 326.891C327.639 327.978 328.578 328.859 329.737 328.859Z" fill="#E6E6E6"/>
<path d="M345.733 317.165L329.413 321.106C328.941 321.218 328.441 321.151 328.022 320.919C327.603 320.687 327.299 320.309 327.176 319.867L323.757 307.403C323.637 306.96 323.709 306.491 323.956 306.098C324.203 305.705 324.607 305.42 325.078 305.305L341.398 301.364C341.869 301.252 342.369 301.319 342.788 301.551C343.207 301.783 343.512 302.161 343.634 302.603L347.054 315.066C347.175 315.508 347.104 315.978 346.856 316.371C346.608 316.765 346.204 317.05 345.733 317.165Z" fill="white"/>
<path d="M345.733 317.165L329.413 321.106C328.941 321.218 328.441 321.151 328.022 320.919C327.603 320.687 327.299 320.309 327.176 319.867L323.757 307.403C323.637 306.96 323.709 306.491 323.956 306.098C324.203 305.705 324.607 305.42 325.078 305.305L341.398 301.364C341.869 301.252 342.369 301.319 342.788 301.551C343.207 301.783 343.512 302.161 343.634 302.603L347.054 315.066C347.175 315.508 347.104 315.978 346.856 316.371C346.608 316.765 346.204 317.05 345.733 317.165ZM325.134 305.503C324.718 305.604 324.362 305.856 324.144 306.203C323.925 306.55 323.863 306.964 323.969 307.354L327.389 319.817C327.497 320.207 327.765 320.541 328.135 320.746C328.505 320.951 328.946 321.01 329.362 320.909L345.682 316.969C346.098 316.868 346.455 316.617 346.673 316.27C346.891 315.923 346.954 315.508 346.847 315.118L343.428 302.656C343.32 302.265 343.052 301.931 342.682 301.726C342.312 301.522 341.87 301.463 341.454 301.563L325.134 305.503Z" fill="#E6E6E6"/>
<path d="M340.569 305.557L332.332 307.545C332.26 307.564 332.183 307.557 332.117 307.525C332.05 307.492 332 307.437 331.975 307.371C331.963 307.337 331.959 307.3 331.963 307.264C331.967 307.228 331.978 307.193 331.997 307.162C332.016 307.13 332.041 307.102 332.072 307.08C332.102 307.058 332.137 307.042 332.174 307.033L340.559 305.009C340.9 305.17 340.808 305.499 340.568 305.557H340.569Z" fill="#F2F2F2"/>
<path d="M340.941 306.913L332.705 308.901C332.633 308.92 332.556 308.913 332.489 308.88C332.423 308.848 332.372 308.793 332.347 308.727C332.336 308.693 332.332 308.656 332.335 308.62C332.339 308.584 332.351 308.549 332.37 308.518C332.388 308.486 332.414 308.458 332.444 308.436C332.475 308.414 332.51 308.398 332.547 308.389L340.931 306.365C341.272 306.526 341.181 306.855 340.941 306.913H340.941Z" fill="#F2F2F2"/>
<path d="M331.136 310.102L328.623 310.709C328.541 310.729 328.454 310.717 328.381 310.677C328.308 310.637 328.255 310.571 328.234 310.494L327.47 307.711C327.448 307.634 327.461 307.552 327.504 307.484C327.547 307.415 327.617 307.366 327.699 307.346L330.213 306.739C330.295 306.719 330.382 306.73 330.455 306.771C330.528 306.811 330.581 306.877 330.602 306.954L331.366 309.737C331.387 309.814 331.375 309.896 331.332 309.964C331.289 310.033 331.219 310.082 331.136 310.102Z" fill="#E6E6E6"/>
<path d="M341.679 309.693L329.108 312.728C329.036 312.747 328.959 312.74 328.893 312.707C328.827 312.675 328.776 312.62 328.751 312.554C328.739 312.52 328.735 312.483 328.739 312.447C328.743 312.411 328.755 312.376 328.773 312.345C328.792 312.313 328.817 312.285 328.848 312.263C328.878 312.241 328.913 312.225 328.951 312.216L341.669 309.145C342.008 309.306 341.919 309.635 341.679 309.693Z" fill="#F2F2F2"/>
<path d="M342.051 311.049L329.48 314.084C329.408 314.103 329.332 314.095 329.265 314.063C329.199 314.031 329.148 313.976 329.123 313.91C329.111 313.876 329.107 313.839 329.111 313.803C329.115 313.767 329.127 313.732 329.145 313.701C329.164 313.669 329.19 313.641 329.22 313.619C329.251 313.597 329.286 313.581 329.323 313.572L342.041 310.501C342.38 310.659 342.291 310.991 342.051 311.049Z" fill="#F2F2F2"/>
<path d="M342.423 312.404L329.853 315.439C329.781 315.457 329.704 315.45 329.637 315.418C329.571 315.385 329.52 315.331 329.495 315.265C329.484 315.23 329.48 315.194 329.483 315.158C329.487 315.122 329.499 315.087 329.517 315.055C329.536 315.023 329.562 314.996 329.592 314.973C329.623 314.951 329.658 314.935 329.695 314.926L342.413 311.855C342.753 312.016 342.663 312.345 342.423 312.404Z" fill="#F2F2F2"/>
<path d="M342.795 313.758L330.225 316.793C330.153 316.812 330.076 316.805 330.009 316.772C329.943 316.74 329.892 316.685 329.867 316.619C329.856 316.585 329.852 316.548 329.855 316.512C329.859 316.476 329.871 316.441 329.89 316.41C329.908 316.378 329.934 316.35 329.964 316.328C329.995 316.306 330.03 316.29 330.067 316.281L342.785 313.21C343.126 313.371 343.036 313.7 342.795 313.758Z" fill="#F2F2F2"/>
<path d="M343.167 315.114L330.596 318.149C330.524 318.168 330.447 318.16 330.381 318.128C330.315 318.096 330.264 318.041 330.239 317.975C330.227 317.941 330.223 317.904 330.227 317.868C330.231 317.832 330.242 317.797 330.261 317.766C330.28 317.734 330.305 317.706 330.336 317.684C330.366 317.662 330.401 317.646 330.439 317.637L343.157 314.566C343.496 314.727 343.407 315.056 343.167 315.114Z" fill="#F2F2F2"/>
<path d="M329.891 327.578C329.845 327.589 329.798 327.586 329.754 327.569L329.183 327.342C329.156 327.331 329.132 327.316 329.112 327.297C329.092 327.278 329.076 327.255 329.065 327.23C329.054 327.205 329.049 327.178 329.049 327.151C329.05 327.124 329.055 327.097 329.067 327.073C329.078 327.048 329.094 327.025 329.115 327.006C329.135 326.987 329.16 326.973 329.186 326.962C329.213 326.952 329.241 326.947 329.27 326.948C329.299 326.948 329.327 326.953 329.354 326.964L329.724 327.112L330.21 326.041C330.221 326.016 330.237 325.993 330.258 325.974C330.279 325.955 330.303 325.941 330.329 325.93C330.356 325.92 330.385 325.915 330.413 325.916C330.442 325.916 330.471 325.921 330.497 325.932C330.55 325.953 330.593 325.994 330.614 326.044C330.636 326.095 330.636 326.151 330.613 326.201L330.042 327.46C330.029 327.489 330.009 327.515 329.983 327.536C329.958 327.556 329.927 327.571 329.895 327.579L329.891 327.578Z" fill="white"/>
<path d="M365.053 341.158H337.181C336.236 341.157 335.33 340.804 334.662 340.177C333.994 339.551 333.618 338.701 333.617 337.814V307.111C333.618 306.225 333.994 305.375 334.662 304.748C335.33 304.121 336.236 303.769 337.181 303.768H363.11L368.617 307.885V337.814C368.616 338.701 368.24 339.55 367.572 340.177C366.904 340.804 365.998 341.157 365.053 341.158Z" fill="#E6E6E6"/>
<path d="M337.184 304.731C336.511 304.732 335.866 304.983 335.39 305.429C334.914 305.876 334.646 306.481 334.646 307.113V337.815C334.646 338.447 334.914 339.052 335.39 339.499C335.866 339.945 336.511 340.196 337.184 340.197H365.055C365.728 340.196 366.374 339.945 366.85 339.499C367.325 339.052 367.593 338.447 367.594 337.815V308.349L362.755 304.731H337.184Z" fill="white"/>
<path d="M359.631 313.659H346.939C346.781 313.659 346.63 313.6 346.519 313.496C346.408 313.391 346.345 313.25 346.345 313.102C346.345 312.954 346.408 312.812 346.519 312.708C346.63 312.604 346.781 312.545 346.939 312.545H359.626C359.783 312.545 359.934 312.604 360.045 312.708C360.157 312.812 360.219 312.954 360.219 313.102C360.219 313.25 360.157 313.391 360.045 313.496C359.934 313.6 359.783 313.659 359.626 313.659H359.631Z" fill="#0B2B3F"/>
<path d="M362.081 315.538H346.939C346.781 315.538 346.63 315.48 346.519 315.375C346.408 315.271 346.345 315.129 346.345 314.981C346.345 314.834 346.408 314.692 346.519 314.587C346.63 314.483 346.781 314.424 346.939 314.424H362.081C362.239 314.424 362.39 314.483 362.501 314.587C362.612 314.692 362.675 314.834 362.675 314.981C362.675 315.129 362.612 315.271 362.501 315.375C362.39 315.48 362.239 315.538 362.081 315.538Z" fill="#0B2B3F"/>
<path d="M359.631 320.967H346.945C346.787 320.967 346.636 321.026 346.525 321.13C346.414 321.235 346.351 321.377 346.351 321.524C346.351 321.672 346.414 321.814 346.525 321.918C346.636 322.022 346.787 322.081 346.945 322.081H359.631C359.789 322.081 359.94 322.022 360.051 321.918C360.163 321.814 360.225 321.672 360.225 321.524C360.225 321.377 360.163 321.235 360.051 321.13C359.94 321.026 359.789 320.967 359.631 320.967Z" fill="#CCCCCC"/>
<path d="M362.078 322.847H346.943C346.785 322.847 346.634 322.905 346.523 323.01C346.412 323.114 346.349 323.256 346.349 323.404C346.349 323.551 346.412 323.693 346.523 323.797C346.634 323.902 346.785 323.961 346.943 323.961H362.078C362.236 323.961 362.387 323.902 362.498 323.797C362.609 323.693 362.672 323.551 362.672 323.404C362.672 323.256 362.609 323.114 362.498 323.01C362.387 322.905 362.236 322.847 362.078 322.847Z" fill="#CCCCCC"/>
<path d="M359.631 330.5H346.939C346.781 330.5 346.63 330.441 346.519 330.337C346.408 330.232 346.345 330.09 346.345 329.943C346.345 329.795 346.408 329.653 346.519 329.549C346.63 329.444 346.781 329.386 346.939 329.386H359.626C359.783 329.386 359.934 329.444 360.045 329.549C360.157 329.653 360.219 329.795 360.219 329.943C360.219 330.09 360.157 330.232 360.045 330.337C359.934 330.441 359.783 330.5 359.626 330.5H359.631Z" fill="#CCCCCC"/>
<path d="M362.081 332.381H346.939C346.781 332.381 346.63 332.323 346.519 332.218C346.408 332.114 346.345 331.972 346.345 331.825C346.345 331.677 346.408 331.535 346.519 331.431C346.63 331.326 346.781 331.268 346.939 331.268H362.081C362.239 331.268 362.39 331.326 362.501 331.431C362.612 331.535 362.675 331.677 362.675 331.825C362.675 331.972 362.612 332.114 362.501 332.218C362.39 332.323 362.239 332.381 362.081 332.381Z" fill="#CCCCCC"/>
<path d="M341.659 316.01C342.817 316.01 343.757 315.129 343.757 314.042C343.757 312.955 342.817 312.074 341.659 312.074C340.5 312.074 339.561 312.955 339.561 314.042C339.561 315.129 340.5 316.01 341.659 316.01Z" fill="#0B2B3F"/>
<path d="M341.451 314.791C341.404 314.791 341.358 314.777 341.32 314.75L340.827 314.397C340.781 314.363 340.751 314.314 340.743 314.26C340.735 314.206 340.751 314.152 340.786 314.108C340.822 314.065 340.874 314.037 340.932 314.03C340.989 314.022 341.048 314.037 341.094 314.07L341.413 314.3L342.168 313.376C342.203 313.333 342.256 313.305 342.313 313.298C342.371 313.291 342.429 313.305 342.475 313.338C342.521 313.372 342.551 313.421 342.558 313.475C342.566 313.528 342.55 313.583 342.515 313.626L341.628 314.714C341.608 314.739 341.581 314.759 341.551 314.773C341.521 314.787 341.488 314.794 341.454 314.794L341.451 314.791Z" fill="white"/>
<path d="M343.972 322.464C343.972 322.723 343.917 322.978 343.812 323.217C343.707 323.456 343.552 323.673 343.357 323.856C343.162 324.039 342.931 324.184 342.676 324.283C342.422 324.382 342.149 324.433 341.873 324.433C341.855 324.434 341.838 324.434 341.82 324.433C341.407 324.423 341.007 324.299 340.669 324.077C340.331 323.854 340.07 323.544 339.92 323.183C339.769 322.823 339.736 322.429 339.823 322.05C339.91 321.672 340.114 321.326 340.409 321.056C340.705 320.786 341.079 320.603 341.484 320.531C341.89 320.46 342.309 320.502 342.689 320.652C343.069 320.803 343.394 321.055 343.622 321.378C343.85 321.7 343.972 322.079 343.972 322.466V322.464Z" fill="#0B2B3F"/>
<path d="M341.659 332.853C342.817 332.853 343.757 331.972 343.757 330.885C343.757 329.798 342.817 328.917 341.659 328.917C340.5 328.917 339.561 329.798 339.561 330.885C339.561 331.972 340.5 332.853 341.659 332.853Z" fill="#CCCCCC"/>
<path d="M368.51 308.017H364.195C363.88 308.017 363.578 307.899 363.355 307.69C363.132 307.482 363.007 307.198 363.007 306.903V303.914C363.007 303.901 363.011 303.889 363.019 303.878C363.026 303.867 363.037 303.858 363.049 303.852C363.062 303.846 363.076 303.844 363.09 303.846C363.103 303.847 363.116 303.852 363.127 303.86L368.554 307.891C368.566 307.9 368.575 307.912 368.579 307.926C368.583 307.94 368.583 307.954 368.578 307.968C368.572 307.982 368.563 307.994 368.55 308.002C368.538 308.01 368.523 308.015 368.508 308.015L368.51 308.017Z" fill="#CCCCCC"/>
<path d="M346.349 321.525C346.349 321.377 346.412 321.235 346.523 321.131C346.634 321.026 346.785 320.968 346.943 320.967H350.105C350.29 321.32 350.421 321.695 350.495 322.081H346.943C346.785 322.081 346.635 322.023 346.523 321.918C346.412 321.814 346.349 321.673 346.349 321.525V321.525Z" fill="#0B2B3F"/>
<path d="M350.568 322.847C350.568 323.223 350.515 323.597 350.411 323.961H346.943C346.785 323.961 346.634 323.902 346.523 323.797C346.412 323.693 346.349 323.551 346.349 323.404C346.349 323.256 346.412 323.114 346.523 323.01C346.634 322.905 346.785 322.847 346.943 322.847H350.568Z" fill="#0B2B3F"/>
<path d="M291.636 291H210C207.239 291 205 293.239 205 296V351.668C205 354.429 207.239 356.668 210 356.668H291.636C294.398 356.668 296.636 354.429 296.636 351.668V296C296.636 293.239 294.398 291 291.636 291Z" fill="white"/>
<rect x="205" y="148" width="399" height="52" rx="10" fill="white"/>
<rect x="219" y="158" width="135" height="32" rx="5" fill="#A2C2D7"/>
<rect x="366" y="158" width="135" height="5" rx="2.5" fill="#A2C2D7"/>
<rect x="366" y="167" width="168" height="5" rx="2.5" fill="#A2C2D7"/>
<rect x="366" y="176" width="81" height="5" rx="2.5" fill="#A2C2D7"/>
<rect x="366" y="185" width="111" height="5" rx="2.5" fill="#A2C2D7"/>
</g>
<path d="M577.758 30.7248C573.591 32.8784 570.042 31.3704 566.605 34.4561C567.463 31.7306 567.28 28.8098 566.089 26.197C565.68 25.3058 564.807 21.2405 565.1 20.3109C565.389 19.6455 569.738 19.8484 571.262 18.9949C572.325 18.3986 574.509 16.8113 575.729 16.984C575.793 18.5297 575.826 19.9111 576.547 21.3557C576.719 21.6961 578.477 30.3531 577.758 30.7248Z" fill="#FFB9B9"/>
<path d="M570.507 25.0575L559.356 25.3691L557.028 27.7536L553.485 40.632V60.9991C553.485 60.9991 549.156 68.1872 551.517 74.4776C554.041 81.2005 562.931 73.2652 569.622 74.1711C576.312 75.0771 586.939 75.9754 586.939 75.9754L580.642 54.1105L585.607 28.5246L579.362 22.4996L570.507 25.0588V25.0575Z" fill="#E6E6E6"/>
<path d="M527.708 32.0446C525.477 30.2411 524.661 27.6992 525.885 26.3678C527.109 25.0364 529.909 25.4196 532.14 27.2245C533.042 27.9338 533.75 28.8355 534.204 29.854L543.554 37.6089L539.581 41.6466L530.786 33.5731C529.645 33.3017 528.589 32.7778 527.708 32.0453L527.708 32.0446Z" fill="#FFB6B6"/>
<path d="M559.735 25.3684L565.894 24.8431L571.294 49.003C571.538 50.0956 571.546 51.223 571.319 52.3188C571.091 53.4145 570.632 54.4564 569.968 55.3831C569.305 56.3098 568.45 57.1027 567.455 57.7149C566.46 58.3271 565.344 58.7463 564.173 58.9479L559.735 59.7124L531.445 36.3485L535.579 29.8866L556.441 42.1623L559.736 25.3678L559.735 25.3684Z" fill="#E6E6E6"/>
<path d="M542.121 143.894C542.121 143.894 536.496 153.692 536.897 153.315C537.299 152.939 544.128 155.2 544.128 155.2L548.146 145.401L542.121 143.894Z" fill="#FFB6B6"/>
<path d="M533.819 75.3048C533.819 75.3048 530.94 86.1013 531.227 85.6432C531.514 85.1851 538.73 85.7993 538.73 85.7993L540.052 75.3745L533.815 75.3054L533.819 75.3048Z" fill="#FFB6B6"/>
<path d="M583.906 73.4897C571.194 75.1647 559.713 73.7041 550.358 66.8237C550.358 66.8237 543.527 88.3054 555.983 90.5664C568.438 92.8274 582.299 88.9413 583.906 85.1723C585.513 81.4033 583.906 73.4897 583.906 73.4897Z" fill="#090814"/>
<path d="M560.204 80.2734L546.343 110.919L539.914 146.345L548.351 148.23L563.444 115.63L583.906 84.4206L560.204 80.2734Z" fill="#090814"/>
<path d="M558.393 71.5352C558.393 71.5352 555.179 48.1694 549.152 46.6614C546.629 46.0499 544.002 45.9147 541.423 46.2634C540.419 46.3925 539.485 46.817 538.755 47.4758C538.025 48.1346 537.537 48.9937 537.36 49.9294L531.883 79.143H539.628L542.121 71.2287L548.75 82.0873L558.393 71.5352Z" fill="#090814"/>
<path d="M538.706 82.8404L531.049 82.0867L529.867 86.2325C529.867 86.2325 517.412 96.7853 523.84 97.5389C530.269 98.2926 536.296 94.148 536.296 94.148L545.139 89.3899C545.139 89.3899 541.72 80.8397 539.309 80.8397C536.899 80.8397 538.706 82.8404 538.706 82.8404Z" fill="#090814"/>
<path d="M542.724 153.504L535.066 152.75L533.885 156.896C533.885 156.896 521.429 167.448 527.858 168.203C534.286 168.957 540.313 164.812 540.313 164.812L549.156 160.054C549.156 160.054 548.549 151.125 546.139 151.125C543.728 151.125 542.724 153.504 542.724 153.504Z" fill="#090814"/>
<path d="M580.906 95.8178C580.065 98.5248 577.894 100.311 576.058 99.8088C574.222 99.3066 573.416 96.7052 574.257 93.9976C574.578 92.9116 575.171 91.9134 575.987 91.0866L579.706 79.6605L585.385 81.4123L581.116 92.4903C581.331 93.599 581.259 94.7398 580.907 95.8172L580.906 95.8178Z" fill="#FFB6B6"/>
<path d="M584.837 25.808L581.876 25.0249C579.083 30.2361 577.882 36.0705 578.406 41.8821L579.868 58.0989L575.046 86.603L584.498 88.8966L591.946 53.1258L584.837 25.808Z" fill="#E6E6E6"/>
<path d="M521.149 31.6512L520.756 20.0032C520.753 19.9094 520.77 19.8161 520.808 19.7291C520.845 19.6421 520.901 19.5634 520.973 19.498C521.045 19.4326 521.13 19.3819 521.224 19.3493C521.318 19.3166 521.418 19.3027 521.518 19.3084L531.372 19.8624C531.47 19.868 531.567 19.8927 531.655 19.9348C531.743 19.977 531.821 20.0357 531.884 20.1074C531.947 20.1791 531.993 20.2622 532.02 20.3515C532.047 20.4408 532.055 20.5343 532.041 20.6263L530.374 32.2066C530.35 32.3759 530.257 32.5301 530.116 32.6382C529.975 32.7464 529.796 32.8004 529.614 32.7894L521.82 32.3057C521.743 32.3011 521.668 32.2849 521.596 32.2577C521.467 32.2087 521.356 32.1255 521.277 32.0182C521.197 31.911 521.153 31.7843 521.149 31.6538L521.149 31.6512Z" fill="#17A589"/>
<path d="M520.768 18.9129C520.904 18.8995 521.091 18.8829 521.314 18.865C521.252 18.7574 521.231 18.6331 521.256 18.5131L521.432 17.6404C521.454 17.53 521.512 17.429 521.599 17.3517C521.686 17.2744 521.797 17.2247 521.915 17.2098C523.366 17.0281 528.357 16.5342 531.499 17.8714C531.595 17.9129 531.677 17.979 531.735 18.062C531.794 18.145 531.826 18.2416 531.829 18.341L531.857 19.2719C531.861 19.382 531.828 19.4905 531.762 19.5822C532.024 19.6462 532.284 19.7178 532.542 19.7939C532.621 19.8176 532.692 19.8622 532.744 19.9225C532.797 19.9828 532.83 20.0561 532.839 20.1337L532.889 20.5303C532.895 20.5892 532.888 20.6487 532.868 20.7047C532.848 20.7607 532.814 20.8119 532.771 20.8546C532.727 20.8973 532.674 20.9305 532.615 20.9518C532.556 20.9732 532.493 20.9822 532.43 20.9782L520.648 20.2354C520.585 20.2314 520.524 20.2146 520.468 20.186C520.413 20.1574 520.365 20.1178 520.328 20.07C520.291 20.0222 520.265 19.9673 520.253 19.9092C520.241 19.8511 520.243 19.7913 520.258 19.7338L520.394 19.222C520.415 19.1406 520.462 19.0672 520.529 19.0119C520.596 18.9566 520.679 18.922 520.768 18.9129Z" fill="#0B2B3F"/>
<path d="M569.68 22.1758C575.187 22.1758 579.652 17.9877 579.652 12.8214C579.652 7.65515 575.187 3.46704 569.68 3.46704C564.172 3.46704 559.707 7.65515 559.707 12.8214C559.707 17.9877 564.172 22.1758 569.68 22.1758Z" fill="#FFB7B7"/>
<path d="M576.515 3.21756L576.714 2.21566L574.043 1.75052C574.043 1.75052 570.265 -1.49898 565.931 0.854815C561.596 3.20861 559.697 4.43445 559.697 4.43445L557.698 6.1619L559.198 6.9418L557.298 8.16572L558.9 8.44467L557.536 9.762L559.787 14.0416C559.787 14.0416 560.207 10.2271 563.412 10.7857C566.617 11.3442 571.149 7.98593 571.149 7.98593L578.071 14.8957C578.071 14.8957 578.129 11.8106 580 12.1292C580.006 12.1254 582.293 4.74155 576.515 3.21756Z" fill="#090814"/>
</g>
<path d="M119.948 341.721H118.626V307.693C118.626 302.47 116.418 297.461 112.488 293.768C108.558 290.075 103.227 288 97.6695 288H20.9561C15.3982 288 10.0679 290.075 6.13791 293.768C2.20787 297.461 0 302.47 0 307.693V494.368C0 499.591 2.20787 504.6 6.13791 508.293C10.0679 511.986 15.3982 514.061 20.9561 514.061H97.6695C103.227 514.061 108.558 511.986 112.488 508.293C116.418 504.6 118.626 499.591 118.626 494.368V365.941H119.948L119.948 341.721Z" fill="#090814"/>
<mask id="mask1_92_484" style="mask-type:alpha" maskUnits="userSpaceOnUse" x="5" y="293" width="110" height="216">
<path d="M98.5182 293.124H88.5046C88.9652 294.185 89.141 295.336 89.0166 296.476C88.8922 297.615 88.4714 298.709 87.7913 299.66C87.1112 300.611 86.1927 301.39 85.1166 301.929C84.0405 302.468 82.8399 302.75 81.6206 302.75H37.6704C36.4511 302.75 35.2504 302.468 34.1743 301.929C33.0982 301.391 32.1796 300.611 31.4994 299.66C30.8193 298.709 30.3985 297.616 30.2741 296.476C30.1496 295.336 30.3255 294.185 30.786 293.124H21.4336C17.2829 293.124 13.3021 294.673 10.3671 297.431C7.43208 300.189 5.7832 303.93 5.7832 307.831V494.232C5.7832 498.132 7.43208 501.873 10.3671 504.631C13.3021 507.389 17.2829 508.939 21.4336 508.939H98.5151C100.57 508.939 102.605 508.558 104.504 507.819C106.403 507.08 108.128 505.997 109.582 504.631C111.035 503.266 112.188 501.644 112.974 499.86C113.761 498.075 114.166 496.163 114.166 494.232V307.831C114.166 303.931 112.517 300.191 109.583 297.432C106.649 294.674 102.668 293.125 98.5182 293.124Z" fill="white"/>
</mask>
<g mask="url(#mask1_92_484)">
<path d="M98.5182 293.124H88.5046C88.9652 294.185 89.141 295.336 89.0166 296.476C88.8922 297.615 88.4714 298.709 87.7913 299.66C87.1112 300.611 86.1927 301.39 85.1166 301.929C84.0405 302.468 82.8399 302.75 81.6206 302.75H37.6704C36.4511 302.75 35.2504 302.468 34.1743 301.929C33.0982 301.391 32.1796 300.611 31.4994 299.66C30.8193 298.709 30.3985 297.616 30.2741 296.476C30.1496 295.336 30.3255 294.185 30.786 293.124H21.4336C17.2829 293.124 13.3021 294.673 10.3671 297.431C7.43208 300.189 5.7832 303.93 5.7832 307.831V494.232C5.7832 498.132 7.43208 501.873 10.3671 504.631C13.3021 507.389 17.2829 508.939 21.4336 508.939H98.5151C100.57 508.939 102.605 508.558 104.504 507.819C106.403 507.08 108.128 505.997 109.582 504.631C111.035 503.266 112.188 501.644 112.974 499.86C113.761 498.075 114.166 496.163 114.166 494.232V307.831C114.166 303.931 112.517 300.191 109.583 297.432C106.649 294.674 102.668 293.125 98.5182 293.124Z" fill="#BDD3E0"/>
<rect x="10" y="330" width="100" height="30" rx="5" fill="white"/>
<rect x="15" y="335" width="81" height="2" rx="1" fill="#BDD3E0"/>
<rect x="15" y="339" width="57" height="2" rx="1" fill="#BDD3E0"/>
<rect x="15" y="343" width="65" height="2" rx="1" fill="#BDD3E0"/>
<rect x="15" y="347" width="46" height="2" rx="1" fill="#BDD3E0"/>
<rect x="15" y="351" width="56" height="2" rx="1" fill="#BDD3E0"/>
<rect x="10" y="365" width="100" height="14" rx="5" fill="white"/>
<rect x="10" y="384" width="100" height="14" rx="5" fill="white"/>
<rect x="10" y="403" width="100" height="65" rx="5" fill="white"/>
<rect x="15" y="408" width="90" height="32" rx="4" fill="#BDD3E0"/>
<rect x="15" y="444" width="81" height="2" rx="1" fill="#BDD3E0"/>
<rect x="15" y="448" width="57" height="2" rx="1" fill="#BDD3E0"/>
<rect x="15" y="452" width="65" height="2" rx="1" fill="#BDD3E0"/>
<rect x="15" y="456" width="46" height="2" rx="1" fill="#BDD3E0"/>
<rect x="15" y="460" width="56" height="2" rx="1" fill="#BDD3E0"/>
<rect x="6" y="475" width="108" height="34" fill="#27BD9F"/>
<rect x="18" y="484" width="15" height="15" rx="4" fill="#17A589"/>
<rect x="41" y="484" width="15" height="15" rx="4" fill="#17A589"/>
<rect x="64" y="484" width="38" height="15" rx="4" fill="#17A589"/>
<rect x="67" y="488" width="30" height="2" rx="1" fill="#BDD3E0"/>
<rect x="67" y="492" width="21" height="2" rx="1" fill="#BDD3E0"/>
<rect x="6" y="293" width="108" height="34" fill="white"/>
<rect x="94" y="309" width="13" height="13" rx="6.5" fill="#17A589"/>
<path d="M49.0466 312.008L14.9446 312.146C13.8706 312.15 13.0013 312.644 13.003 313.249L13.0058 314.27C13.0074 314.875 13.8794 315.361 14.9534 315.357L49.0554 315.219C50.1294 315.215 50.9987 314.721 50.997 314.116L50.9942 313.095C50.9926 312.49 50.1206 312.004 49.0466 312.008Z" fill="#0B2B3F"/>
<path d="M32.7717 316.779L14.0666 316.854C13.4775 316.857 13.0013 317.349 13.003 317.953L13.0058 318.975C13.0074 319.58 13.4863 320.068 14.0754 320.065L32.7805 319.99C33.3696 319.987 33.8458 319.495 33.8441 318.891L33.8413 317.869C33.8397 317.264 33.3608 316.776 32.7717 316.779Z" fill="#0B2B3F"/>
</g>
<defs>
<clipPath id="clip0_92_484">
<rect width="545" height="484" fill="white" transform="translate(82)"/>
</clipPath>
</defs>
</svg>
