<svg width="25" height="25" viewBox="0 0 25 25" fill="none" xmlns="http://www.w3.org/2000/svg">
<g clip-path="url(#clip0_370_1877)">
<path d="M12.5 15.625C14.2259 15.625 15.625 14.2259 15.625 12.5C15.625 10.7741 14.2259 9.375 12.5 9.375C10.7741 9.375 9.375 10.7741 9.375 12.5C9.375 14.2259 10.7741 15.625 12.5 15.625Z" stroke="#0B2B3F" stroke-width="2" stroke-linecap="round" stroke-linejoin="round"/>
<path d="M20.2083 15.625C20.0696 15.9391 20.0283 16.2877 20.0895 16.6256C20.1508 16.9635 20.3119 17.2753 20.552 17.5208L20.6145 17.5833C20.8082 17.7768 20.9619 18.0065 21.0667 18.2595C21.1716 18.5124 21.2256 18.7835 21.2256 19.0573C21.2256 19.331 21.1716 19.6021 21.0667 19.855C20.9619 20.108 20.8082 20.3377 20.6145 20.5312C20.4211 20.7249 20.1913 20.8786 19.9384 20.9834C19.6855 21.0883 19.4144 21.1422 19.1406 21.1422C18.8668 21.1422 18.5957 21.0883 18.3428 20.9834C18.0899 20.8786 17.8601 20.7249 17.6666 20.5312L17.6041 20.4687C17.3586 20.2286 17.0468 20.0675 16.7089 20.0062C16.371 19.9449 16.0225 19.9863 15.7083 20.125C15.4002 20.257 15.1374 20.4763 14.9524 20.7557C14.7673 21.0352 14.668 21.3627 14.6666 21.6979V21.875C14.6666 22.4275 14.4471 22.9574 14.0564 23.3481C13.6657 23.7388 13.1358 23.9583 12.5833 23.9583C12.0308 23.9583 11.5009 23.7388 11.1102 23.3481C10.7195 22.9574 10.5 22.4275 10.5 21.875V21.7812C10.4919 21.4364 10.3803 21.102 10.1797 20.8215C9.97902 20.541 9.69864 20.3273 9.37496 20.2083C9.06078 20.0696 8.71226 20.0283 8.37435 20.0895C8.03643 20.1508 7.72462 20.3119 7.47913 20.552L7.41663 20.6145C7.22314 20.8082 6.99337 20.9619 6.74046 21.0667C6.48755 21.1716 6.21645 21.2256 5.94267 21.2256C5.66889 21.2256 5.39779 21.1716 5.14488 21.0667C4.89196 20.9619 4.66219 20.8082 4.46871 20.6145C4.27501 20.4211 4.12134 20.1913 4.0165 19.9384C3.91166 19.6855 3.8577 19.4144 3.8577 19.1406C3.8577 18.8668 3.91166 18.5957 4.0165 18.3428C4.12134 18.0899 4.27501 17.8601 4.46871 17.6666L4.53121 17.6041C4.77135 17.3586 4.93244 17.0468 4.99371 16.7089C5.05498 16.371 5.01362 16.0225 4.87496 15.7083C4.74291 15.4002 4.52366 15.1374 4.24419 14.9524C3.96472 14.7673 3.63724 14.668 3.30204 14.6666H3.12496C2.57242 14.6666 2.04252 14.4471 1.65182 14.0564C1.26112 13.6657 1.04163 13.1358 1.04163 12.5833C1.04163 12.0308 1.26112 11.5009 1.65182 11.1102C2.04252 10.7195 2.57242 10.5 3.12496 10.5H3.21871C3.5635 10.4919 3.89788 10.3803 4.1784 10.1797C4.45891 9.97902 4.67258 9.69864 4.79163 9.37496C4.93029 9.06078 4.97165 8.71226 4.91038 8.37435C4.84911 8.03643 4.68802 7.72462 4.44788 7.47913L4.38538 7.41663C4.19167 7.22314 4.03801 6.99337 3.93317 6.74046C3.82833 6.48755 3.77436 6.21645 3.77436 5.94267C3.77436 5.66889 3.82833 5.39779 3.93317 5.14488C4.03801 4.89196 4.19167 4.66219 4.38538 4.46871C4.57886 4.27501 4.80863 4.12134 5.06154 4.0165C5.31445 3.91166 5.58555 3.8577 5.85933 3.8577C6.13312 3.8577 6.40421 3.91166 6.65713 4.0165C6.91004 4.12134 7.13981 4.27501 7.33329 4.46871L7.39579 4.53121C7.64129 4.77135 7.9531 4.93244 8.29101 4.99371C8.62892 5.05498 8.97744 5.01362 9.29163 4.87496H9.37496C9.68305 4.74291 9.94581 4.52366 10.1309 4.24419C10.316 3.96472 10.4153 3.63724 10.4166 3.30204V3.12496C10.4166 2.57242 10.6361 2.04252 11.0268 1.65182C11.4175 1.26112 11.9474 1.04163 12.5 1.04163C13.0525 1.04163 13.5824 1.26112 13.9731 1.65182C14.3638 2.04252 14.5833 2.57242 14.5833 3.12496V3.21871C14.5846 3.5539 14.684 3.88139 14.869 4.16086C15.0541 4.44033 15.3169 4.65958 15.625 4.79163C15.9391 4.93029 16.2877 4.97165 16.6256 4.91038C16.9635 4.84911 17.2753 4.68802 17.5208 4.44788L17.5833 4.38538C17.7768 4.19167 18.0065 4.03801 18.2595 3.93317C18.5124 3.82833 18.7835 3.77436 19.0573 3.77436C19.331 3.77436 19.6021 3.82833 19.855 3.93317C20.108 4.03801 20.3377 4.19167 20.5312 4.38538C20.7249 4.57886 20.8786 4.80863 20.9834 5.06154C21.0883 5.31445 21.1422 5.58555 21.1422 5.85933C21.1422 6.13312 21.0883 6.40421 20.9834 6.65713C20.8786 6.91004 20.7249 7.13981 20.5312 7.33329L20.4687 7.39579C20.2286 7.64129 20.0675 7.9531 20.0062 8.29101C19.9449 8.62892 19.9863 8.97744 20.125 9.29163V9.37496C20.257 9.68305 20.4763 9.94581 20.7557 10.1309C21.0352 10.316 21.3627 10.4153 21.6979 10.4166H21.875C22.4275 10.4166 22.9574 10.6361 23.3481 11.0268C23.7388 11.4175 23.9583 11.9474 23.9583 12.5C23.9583 13.0525 23.7388 13.5824 23.3481 13.9731C22.9574 14.3638 22.4275 14.5833 21.875 14.5833H21.7812C21.446 14.5846 21.1185 14.684 20.8391 14.869C20.5596 15.0541 20.3403 15.3169 20.2083 15.625Z" stroke="#0B2B3F" stroke-width="2" stroke-linecap="round" stroke-linejoin="round"/>
</g>
<defs>
<clipPath id="clip0_370_1877">
<rect width="25" height="25" fill="white"/>
</clipPath>
</defs>
</svg>
