<svg width="25" height="25" viewBox="0 0 25 25" fill="none" xmlns="http://www.w3.org/2000/svg">
<path d="M17.7083 21.875V19.7917C17.7083 18.6866 17.2693 17.6268 16.4879 16.8454C15.7065 16.064 14.6467 15.625 13.5416 15.625H5.20829C4.10322 15.625 3.04342 16.064 2.26201 16.8454C1.48061 17.6268 1.04163 18.6866 1.04163 19.7917V21.875" stroke="#0B2B3F" stroke-width="2" stroke-linecap="round" stroke-linejoin="round"/>
<path d="M9.37504 11.4583C11.6762 11.4583 13.5417 9.59285 13.5417 7.29167C13.5417 4.99048 11.6762 3.125 9.37504 3.125C7.07385 3.125 5.20837 4.99048 5.20837 7.29167C5.20837 9.59285 7.07385 11.4583 9.37504 11.4583Z" stroke="#0B2B3F" stroke-width="2" stroke-linecap="round" stroke-linejoin="round"/>
<path d="M23.9584 21.875V19.7916C23.9577 18.8684 23.6504 17.9716 23.0848 17.242C22.5192 16.5123 21.7273 15.9912 20.8334 15.7604" stroke="#0B2B3F" stroke-width="2" stroke-linecap="round" stroke-linejoin="round"/>
<path d="M16.6666 3.26038C17.5629 3.48986 18.3573 4.01111 18.9246 4.74195C19.4919 5.47279 19.7998 6.37166 19.7998 7.29683C19.7998 8.22201 19.4919 9.12088 18.9246 9.85172C18.3573 10.5826 17.5629 11.1038 16.6666 11.3333" stroke="#0B2B3F" stroke-width="2" stroke-linecap="round" stroke-linejoin="round"/>
</svg>
