<svg width="1280" height="800" viewBox="0 0 1280 800" fill="none" xmlns="http://www.w3.org/2000/svg">
<g clip-path="url(#clip0_132_505)">
<path d="M0 57H19.3829C38.6743 57 77.44 57 116.297 57C155.154 57 194.103 57 232.96 57C271.817 57 310.583 57 349.257 61C387.931 65 426.697 73 465.371 75.7C504.046 78.3 542.811 75.7 581.669 74.3C620.526 73 659.474 73 698.331 71.7C737.189 70.3 775.954 67.7 814.629 65C853.303 62.3 892.069 59.7 930.743 62.3C969.417 65 1008.18 73 1047.04 75.7C1085.9 78.3 1124.85 75.7 1163.7 73C1202.56 70.3 1241.33 67.7 1260.62 66.3L1280 65V0H1260.62C1241.33 0 1202.56 0 1163.7 0C1124.85 0 1085.9 0 1047.04 0C1008.18 0 969.417 0 930.743 0C892.069 0 853.303 0 814.629 0C775.954 0 737.189 0 698.331 0C659.474 0 620.526 0 581.669 0C542.811 0 504.046 0 465.371 0C426.697 0 387.931 0 349.257 0C310.583 0 271.817 0 232.96 0C194.103 0 155.154 0 116.297 0C77.44 0 38.6743 0 19.3829 0H0V57Z" fill="#DBDBDB"/>
<path d="M0 89L19.3829 91.7C38.6743 94.3 77.44 99.7 116.297 99.7C155.154 99.7 194.103 94.3 232.96 95.7C271.817 97 310.583 105 349.257 109C387.931 113 426.697 113 465.371 113C504.046 113 542.811 113 581.669 113C620.526 113 659.474 113 698.331 114.3C737.189 115.7 775.954 118.3 814.629 115.7C853.303 113 892.069 105 930.743 106.3C969.417 107.7 1008.18 118.3 1047.04 122.3C1085.9 126.3 1124.85 123.7 1163.7 119.7C1202.56 115.7 1241.33 110.3 1260.62 107.7L1280 105V63L1260.62 64.3C1241.33 65.7 1202.56 68.3 1163.7 71C1124.85 73.7 1085.9 76.3 1047.04 73.7C1008.18 71 969.417 63 930.743 60.3C892.069 57.7 853.303 60.3 814.629 63C775.954 65.7 737.189 68.3 698.331 69.7C659.474 71 620.526 71 581.669 72.3C542.811 73.7 504.046 76.3 465.371 73.7C426.697 71 387.931 63 349.257 59C310.583 55 271.817 55 232.96 55C194.103 55 155.154 55 116.297 55C77.44 55 38.6743 55 19.3829 55H0V89Z" fill="#E2E2E2"/>
<path d="M0 113L19.3829 117C38.6743 121 77.44 129 116.297 130.3C155.154 131.7 194.103 126.3 232.96 126.3C271.817 126.3 310.583 131.7 349.257 134.3C387.931 137 426.697 137 465.371 137C504.046 137 542.811 137 581.669 137C620.526 137 659.474 137 698.331 138.3C737.189 139.7 775.954 142.3 814.629 141C853.303 139.7 892.069 134.3 930.743 135.7C969.417 137 1008.18 145 1047.04 147.7C1085.9 150.3 1124.85 147.7 1163.7 145C1202.56 142.3 1241.33 139.7 1260.62 138.3L1280 137V103L1260.62 105.7C1241.33 108.3 1202.56 113.7 1163.7 117.7C1124.85 121.7 1085.9 124.3 1047.04 120.3C1008.18 116.3 969.417 105.7 930.743 104.3C892.069 103 853.303 111 814.629 113.7C775.954 116.3 737.189 113.7 698.331 112.3C659.474 111 620.526 111 581.669 111C542.811 111 504.046 111 465.371 111C426.697 111 387.931 111 349.257 107C310.583 103 271.817 95 232.96 93.7C194.103 92.3 155.154 97.7 116.297 97.7C77.44 97.7 38.6743 92.3 19.3829 89.7L0 87V113Z" fill="#EAEAEA"/>
<path d="M0 185L19.3829 186.3C38.6743 187.7 77.44 190.3 116.297 186.3C155.154 182.3 194.103 171.7 232.96 167.7C271.817 163.7 310.583 166.3 349.257 170.3C387.931 174.3 426.697 179.7 465.371 182.3C504.046 185 542.811 185 581.669 185C620.526 185 659.474 185 698.331 187.7C737.189 190.3 775.954 195.7 814.629 198.3C853.303 201 892.069 201 930.743 199.7C969.417 198.3 1008.18 195.7 1047.04 193C1085.9 190.3 1124.85 187.7 1163.7 185C1202.56 182.3 1241.33 179.7 1260.62 178.3L1280 177V135L1260.62 136.3C1241.33 137.7 1202.56 140.3 1163.7 143C1124.85 145.7 1085.9 148.3 1047.04 145.7C1008.18 143 969.417 135 930.743 133.7C892.069 132.3 853.303 137.7 814.629 139C775.954 140.3 737.189 137.7 698.331 136.3C659.474 135 620.526 135 581.669 135C542.811 135 504.046 135 465.371 135C426.697 135 387.931 135 349.257 132.3C310.583 129.7 271.817 124.3 232.96 124.3C194.103 124.3 155.154 129.7 116.297 128.3C77.44 127 38.6743 119 19.3829 115L0 111V185Z" fill="#EEEEEE"/>
<path d="M0 273L19.3829 274.3C38.6743 275.7 77.44 278.3 116.297 278.3C155.154 278.3 194.103 275.7 232.96 277C271.817 278.3 310.583 283.7 349.257 282.3C387.931 281 426.697 273 465.371 266.3C504.046 259.7 542.811 254.3 581.669 253C620.526 251.7 659.474 254.3 698.331 259.7C737.189 265 775.954 273 814.629 281C853.303 289 892.069 297 930.743 295.7C969.417 294.3 1008.18 283.7 1047.04 282.3C1085.9 281 1124.85 289 1163.7 290.3C1202.56 291.7 1241.33 286.3 1260.62 283.7L1280 281V175L1260.62 176.3C1241.33 177.7 1202.56 180.3 1163.7 183C1124.85 185.7 1085.9 188.3 1047.04 191C1008.18 193.7 969.417 196.3 930.743 197.7C892.069 199 853.303 199 814.629 196.3C775.954 193.7 737.189 188.3 698.331 185.7C659.474 183 620.526 183 581.669 183C542.811 183 504.046 183 465.371 180.3C426.697 177.7 387.931 172.3 349.257 168.3C310.583 164.3 271.817 161.7 232.96 165.7C194.103 169.7 155.154 180.3 116.297 184.3C77.44 188.3 38.6743 185.7 19.3829 184.3L0 183V273Z" fill="#F1F1F1"/>
<path d="M0 329L19.3829 327.7C38.6743 326.3 77.44 323.7 116.297 319.7C155.154 315.7 194.103 310.3 232.96 313C271.817 315.7 310.583 326.3 349.257 325C387.931 323.7 426.697 310.3 465.371 301C504.046 291.7 542.811 286.3 581.669 285C620.526 283.7 659.474 286.3 698.331 291.7C737.189 297 775.954 305 814.629 313C853.303 321 892.069 329 930.743 327.7C969.417 326.3 1008.18 315.7 1047.04 315.7C1085.9 315.7 1124.85 326.3 1163.7 327.7C1202.56 329 1241.33 321 1260.62 317L1280 313V279L1260.62 281.7C1241.33 284.3 1202.56 289.7 1163.7 288.3C1124.85 287 1085.9 279 1047.04 280.3C1008.18 281.7 969.417 292.3 930.743 293.7C892.069 295 853.303 287 814.629 279C775.954 271 737.189 263 698.331 257.7C659.474 252.3 620.526 249.7 581.669 251C542.811 252.3 504.046 257.7 465.371 264.3C426.697 271 387.931 279 349.257 280.3C310.583 281.7 271.817 276.3 232.96 275C194.103 273.7 155.154 276.3 116.297 276.3C77.44 276.3 38.6743 273.7 19.3829 272.3L0 271V329Z" fill="#F2F2F2"/>
<path d="M0 545L19.3829 526.3C38.6743 507.7 77.44 470.3 116.297 454.3C155.154 438.3 194.103 443.7 232.96 454.3C271.817 465 310.583 481 349.257 489C387.931 497 426.697 497 465.371 491.7C504.046 486.3 542.811 475.7 581.669 474.3C620.526 473 659.474 481 698.331 489C737.189 497 775.954 505 814.629 515.7C853.303 526.3 892.069 539.7 930.743 542.3C969.417 545 1008.18 537 1047.04 530.3C1085.9 523.7 1124.85 518.3 1163.7 501C1202.56 483.7 1241.33 454.3 1260.62 439.7L1280 425V311L1260.62 315C1241.33 319 1202.56 327 1163.7 325.7C1124.85 324.3 1085.9 313.7 1047.04 313.7C1008.18 313.7 969.417 324.3 930.743 325.7C892.069 327 853.303 319 814.629 311C775.954 303 737.189 295 698.331 289.7C659.474 284.3 620.526 281.7 581.669 283C542.811 284.3 504.046 289.7 465.371 299C426.697 308.3 387.931 321.7 349.257 323C310.583 324.3 271.817 313.7 232.96 311C194.103 308.3 155.154 313.7 116.297 317.7C77.44 321.7 38.6743 324.3 19.3829 325.7L0 327V545Z" fill="#F2F2F2"/>
<path d="M0 673L19.3829 662.3C38.6743 651.7 77.44 630.3 116.297 623.7C155.154 617 194.103 625 232.96 626.3C271.817 627.7 310.583 622.3 349.257 619.7C387.931 617 426.697 617 465.371 618.3C504.046 619.7 542.811 622.3 581.669 617C620.526 611.7 659.474 598.3 698.331 598.3C737.189 598.3 775.954 611.7 814.629 625C853.303 638.3 892.069 651.7 930.743 657C969.417 662.3 1008.18 659.7 1047.04 657C1085.9 654.3 1124.85 651.7 1163.7 641C1202.56 630.3 1241.33 611.7 1260.62 602.3L1280 593V423L1260.62 437.7C1241.33 452.3 1202.56 481.7 1163.7 499C1124.85 516.3 1085.9 521.7 1047.04 528.3C1008.18 535 969.417 543 930.743 540.3C892.069 537.7 853.303 524.3 814.629 513.7C775.954 503 737.189 495 698.331 487C659.474 479 620.526 471 581.669 472.3C542.811 473.7 504.046 484.3 465.371 489.7C426.697 495 387.931 495 349.257 487C310.583 479 271.817 463 232.96 452.3C194.103 441.7 155.154 436.3 116.297 452.3C77.44 468.3 38.6743 505.7 19.3829 524.3L0 543V673Z" fill="#F1F1F1"/>
<path d="M0 697L19.3829 690.3C38.6743 683.7 77.44 670.3 116.297 663.7C155.154 657 194.103 657 232.96 658.3C271.817 659.7 310.583 662.3 349.257 663.7C387.931 665 426.697 665 465.371 663.7C504.046 662.3 542.811 659.7 581.669 654.3C620.526 649 659.474 641 698.331 641C737.189 641 775.954 649 814.629 659.7C853.303 670.3 892.069 683.7 930.743 687.7C969.417 691.7 1008.18 686.3 1047.04 682.3C1085.9 678.3 1124.85 675.7 1163.7 669C1202.56 662.3 1241.33 651.7 1260.62 646.3L1280 641V591L1260.62 600.3C1241.33 609.7 1202.56 628.3 1163.7 639C1124.85 649.7 1085.9 652.3 1047.04 655C1008.18 657.7 969.417 660.3 930.743 655C892.069 649.7 853.303 636.3 814.629 623C775.954 609.7 737.189 596.3 698.331 596.3C659.474 596.3 620.526 609.7 581.669 615C542.811 620.3 504.046 617.7 465.371 616.3C426.697 615 387.931 615 349.257 617.7C310.583 620.3 271.817 625.7 232.96 624.3C194.103 623 155.154 615 116.297 621.7C77.44 628.3 38.6743 649.7 19.3829 660.3L0 671V697Z" fill="#EEEEEE"/>
<path d="M0 753L19.3829 749C38.6743 745 77.44 737 116.297 734.3C155.154 731.7 194.103 734.3 232.96 737C271.817 739.7 310.583 742.3 349.257 743.7C387.931 745 426.697 745 465.371 742.3C504.046 739.7 542.811 734.3 581.669 730.3C620.526 726.3 659.474 723.7 698.331 725C737.189 726.3 775.954 731.7 814.629 737C853.303 742.3 892.069 747.7 930.743 747.7C969.417 747.7 1008.18 742.3 1047.04 739.7C1085.9 737 1124.85 737 1163.7 737C1202.56 737 1241.33 737 1260.62 737H1280V639L1260.62 644.3C1241.33 649.7 1202.56 660.3 1163.7 667C1124.85 673.7 1085.9 676.3 1047.04 680.3C1008.18 684.3 969.417 689.7 930.743 685.7C892.069 681.7 853.303 668.3 814.629 657.7C775.954 647 737.189 639 698.331 639C659.474 639 620.526 647 581.669 652.3C542.811 657.7 504.046 660.3 465.371 661.7C426.697 663 387.931 663 349.257 661.7C310.583 660.3 271.817 657.7 232.96 656.3C194.103 655 155.154 655 116.297 661.7C77.44 668.3 38.6743 681.7 19.3829 688.3L0 695V753Z" fill="#EAEAEA"/>
<path d="M0 777L19.3829 774.3C38.6743 771.7 77.44 766.3 116.297 763.7C155.154 761 194.103 761 232.96 762.3C271.817 763.7 310.583 766.3 349.257 769C387.931 771.7 426.697 774.3 465.371 774.3C504.046 774.3 542.811 771.7 581.669 769C620.526 766.3 659.474 763.7 698.331 762.3C737.189 761 775.954 761 814.629 763.7C853.303 766.3 892.069 771.7 930.743 774.3C969.417 777 1008.18 777 1047.04 775.7C1085.9 774.3 1124.85 771.7 1163.7 771.7C1202.56 771.7 1241.33 774.3 1260.62 775.7L1280 777V735H1260.62C1241.33 735 1202.56 735 1163.7 735C1124.85 735 1085.9 735 1047.04 737.7C1008.18 740.3 969.417 745.7 930.743 745.7C892.069 745.7 853.303 740.3 814.629 735C775.954 729.7 737.189 724.3 698.331 723C659.474 721.7 620.526 724.3 581.669 728.3C542.811 732.3 504.046 737.7 465.371 740.3C426.697 743 387.931 743 349.257 741.7C310.583 740.3 271.817 737.7 232.96 735C194.103 732.3 155.154 729.7 116.297 732.3C77.44 735 38.6743 743 19.3829 747L0 751V777Z" fill="#E2E2E2"/>
<path d="M0 801H19.3829C38.6743 801 77.44 801 116.297 801C155.154 801 194.103 801 232.96 801C271.817 801 310.583 801 349.257 801C387.931 801 426.697 801 465.371 801C504.046 801 542.811 801 581.669 801C620.526 801 659.474 801 698.331 801C737.189 801 775.954 801 814.629 801C853.303 801 892.069 801 930.743 801C969.417 801 1008.18 801 1047.04 801C1085.9 801 1124.85 801 1163.7 801C1202.56 801 1241.33 801 1260.62 801H1280V775L1260.62 773.7C1241.33 772.3 1202.56 769.7 1163.7 769.7C1124.85 769.7 1085.9 772.3 1047.04 773.7C1008.18 775 969.417 775 930.743 772.3C892.069 769.7 853.303 764.3 814.629 761.7C775.954 759 737.189 759 698.331 760.3C659.474 761.7 620.526 764.3 581.669 767C542.811 769.7 504.046 772.3 465.371 772.3C426.697 772.3 387.931 769.7 349.257 767C310.583 764.3 271.817 761.7 232.96 760.3C194.103 759 155.154 759 116.297 761.7C77.44 764.3 38.6743 769.7 19.3829 772.3L0 775V801Z" fill="#DBDBDB"/>
</g>
<defs>
<clipPath id="clip0_132_505">
<rect width="1280" height="800" fill="white"/>
</clipPath>
</defs>
</svg>
