<svg width="616" height="442" viewBox="0 0 616 442" fill="none" xmlns="http://www.w3.org/2000/svg">
<g clip-path="url(#clip0_127_1650)">
<path d="M525.234 436.888C524.78 436.988 524.318 437.08 523.854 437.165L505.826 422.572C506.179 422.46 506.59 422.326 507.061 422.178C514.796 419.673 537.834 412.111 560.76 403.498C585.394 394.24 609.911 383.778 615.183 377.078C614.052 378.634 579.212 425.849 525.234 436.888Z" fill="#F0F0F0"/>
<path d="M289.881 227.352L260.713 206.949L238.405 233.626L267.573 254.029L289.881 227.352Z" fill="#F4D03F"/>
<path d="M125.037 45.2183C129.645 45.215 134.191 46.1987 138.309 48.0907C142.427 49.9827 146.003 52.7304 148.752 56.1137L165.784 35.7468L114.68 0L75.5953 46.7383L97.6207 62.1451C99.8248 57.1456 103.613 52.8627 108.498 49.8466C113.383 46.8304 119.142 45.2187 125.037 45.2183Z" fill="#F4D03F"/>
<path d="M615.131 442H1.32272C1.09214 442 0.871001 441.916 0.707954 441.767C0.544906 441.618 0.453308 441.416 0.453308 441.205C0.453308 440.994 0.544906 440.792 0.707954 440.643C0.871001 440.493 1.09214 440.41 1.32272 440.41H615.131C615.361 440.41 615.582 440.493 615.745 440.643C615.908 440.792 616 440.994 616 441.205C616 441.416 615.908 441.618 615.745 441.767C615.582 441.916 615.361 442 615.131 442Z" fill="#0B2B3F"/>
<path d="M560.428 115.759H557.861V51.4357C557.861 46.5468 556.808 41.7058 554.763 37.1891C552.717 32.6723 549.719 28.5683 545.939 25.1113C542.159 21.6544 537.672 18.9121 532.733 17.0412C527.795 15.1703 522.501 14.2074 517.156 14.2074H368.152C362.806 14.2074 357.513 15.1703 352.575 17.0412C347.636 18.9121 343.149 21.6543 339.369 25.1113C335.589 28.5682 332.591 32.6722 330.545 37.189C328.499 41.7057 327.447 46.5467 327.447 51.4356V404.316C327.447 409.205 328.499 414.046 330.545 418.563C332.591 423.079 335.589 427.183 339.369 430.64C343.149 434.097 347.636 436.839 352.574 438.71C357.513 440.581 362.806 441.544 368.152 441.544H517.156C522.501 441.544 527.794 440.581 532.733 438.71C537.672 436.84 542.159 434.097 545.939 430.64C549.719 427.183 552.717 423.079 554.763 418.563C556.808 414.046 557.861 409.205 557.861 404.316V161.545H560.428V115.759Z" fill="#0B2B3F"/>
<path d="M549.196 51.796V404.163C549.196 407.814 548.41 411.429 546.882 414.802C545.354 418.175 543.114 421.24 540.291 423.821C537.468 426.402 534.116 428.449 530.427 429.846C526.739 431.242 522.786 431.96 518.794 431.959H369.072C365.081 431.959 361.129 431.24 357.441 429.843C353.754 428.446 350.403 426.399 347.581 423.818C344.759 421.237 342.52 418.172 340.993 414.8C339.466 411.427 338.68 407.813 338.68 404.163V51.796C338.68 48.1457 339.466 44.5311 340.993 41.1586C342.52 37.7861 344.759 34.7218 347.581 32.1406C350.403 29.5595 353.754 27.5121 357.441 26.1153C361.129 24.7185 365.081 23.9997 369.072 24H387.241C386.35 26.0057 386.01 28.1811 386.253 30.3348C386.496 32.4886 387.314 34.5548 388.635 36.3516C389.956 38.1484 391.74 39.6208 393.829 40.6394C395.918 41.6579 398.249 42.1914 400.616 42.1928H485.977C488.345 42.1949 490.678 41.6637 492.77 40.6461C494.861 39.6285 496.646 38.1558 497.968 36.358C499.29 34.5601 500.107 32.4924 500.349 30.3372C500.59 28.182 500.248 26.0056 499.352 24H518.794C522.786 23.9987 526.739 24.7167 530.427 26.113C534.116 27.5092 537.468 29.5565 540.291 32.1377C543.114 34.7189 545.354 37.7836 546.882 41.1566C548.41 44.5296 549.196 48.1449 549.196 51.796Z" fill="white"/>
<path d="M502.623 234.8H371.023C368.718 234.798 366.508 233.959 364.878 232.468C363.248 230.978 362.331 228.957 362.329 226.848V222.891C362.331 220.782 363.248 218.761 364.878 217.271C366.508 215.78 368.718 214.941 371.023 214.939H502.623C504.928 214.941 507.138 215.78 508.768 217.271C510.398 218.761 511.315 220.782 511.318 222.891V226.848C511.315 228.957 510.398 230.978 508.768 232.468C507.138 233.959 504.928 234.798 502.623 234.8Z" fill="#F0F0F0"/>
<path d="M502.623 268.918H371.023C368.718 268.915 366.508 268.077 364.878 266.586C363.248 265.096 362.331 263.074 362.329 260.966V257.008C362.331 254.9 363.248 252.879 364.878 251.388C366.508 249.898 368.718 249.059 371.023 249.057H502.623C504.928 249.059 507.138 249.898 508.768 251.388C510.398 252.879 511.315 254.9 511.318 257.008V260.966C511.315 263.074 510.398 265.096 508.768 266.586C507.138 268.077 504.928 268.915 502.623 268.918Z" fill="#F0F0F0"/>
<path d="M509.206 227.17H377.606C375.185 227.167 372.865 226.287 371.154 224.721C369.442 223.156 368.48 221.034 368.477 218.82V214.863C368.48 212.649 369.442 210.527 371.154 208.962C372.865 207.396 375.185 206.516 377.606 206.513H509.206C511.627 206.516 513.947 207.396 515.658 208.962C517.37 210.527 518.332 212.649 518.335 214.863V218.82C518.332 221.034 517.37 223.156 515.658 224.721C513.947 226.287 511.627 227.167 509.206 227.17ZM377.606 208.104C375.646 208.106 373.768 208.818 372.383 210.086C370.997 211.353 370.218 213.071 370.216 214.863V218.82C370.218 220.612 370.997 222.33 372.383 223.597C373.768 224.865 375.646 225.577 377.606 225.579H509.206C511.166 225.577 513.044 224.865 514.429 223.597C515.815 222.33 516.594 220.612 516.596 218.82V214.863C516.594 213.071 515.815 211.353 514.429 210.086C513.044 208.818 511.166 208.106 509.206 208.104H377.606Z" fill="#0B2B3F"/>
<path d="M509.206 261.287H377.606C375.185 261.285 372.865 260.404 371.154 258.839C369.442 257.274 368.48 255.152 368.477 252.938V248.98C368.48 246.767 369.442 244.645 371.154 243.079C372.865 241.514 375.185 240.634 377.606 240.631H509.206C511.627 240.634 513.947 241.514 515.658 243.079C517.37 244.645 518.332 246.767 518.335 248.98V252.938C518.332 255.152 517.37 257.274 515.658 258.839C513.947 260.404 511.627 261.285 509.206 261.287ZM377.606 242.222C375.646 242.224 373.768 242.936 372.383 244.203C370.997 245.47 370.218 247.188 370.216 248.98V252.938C370.218 254.73 370.997 256.448 372.383 257.715C373.768 258.982 375.646 259.695 377.606 259.697H509.206C511.166 259.695 513.044 258.982 514.429 257.715C515.815 256.448 516.594 254.73 516.596 252.938V248.98C516.594 247.188 515.815 245.47 514.429 244.203C513.044 242.936 511.166 242.224 509.206 242.222H377.606Z" fill="#0B2B3F"/>
<path d="M549.196 51.6915V128.336C535.88 131.54 521.938 131.908 508.443 129.411C494.947 126.914 482.258 121.618 471.351 113.932C460.444 106.246 451.61 96.3744 445.529 85.0761C439.448 73.7778 436.282 61.3543 436.274 48.7614C436.274 46.5136 436.373 44.2893 436.571 42.0883H485.977C488.345 42.0904 490.678 41.5592 492.77 40.5416C494.861 39.524 496.646 38.0513 497.968 36.2535C499.29 34.4556 500.107 32.3879 500.349 30.2327C500.59 28.0775 500.248 25.9011 499.352 23.8955H518.793C522.785 23.8942 526.739 24.6122 530.427 26.0085C534.116 27.4047 537.468 29.452 540.291 32.0332C543.114 34.6144 545.354 37.6791 546.882 41.0521C548.41 44.4251 549.196 48.0404 549.196 51.6915Z" fill="#17A589"/>
<path d="M414.331 427.067C414.331 428.683 414.265 430.279 414.122 431.854H369.072C365.081 431.854 361.129 431.135 357.441 429.739C353.754 428.342 350.403 426.295 347.581 423.713C344.759 421.132 342.52 418.068 340.993 414.695C339.466 411.323 338.68 407.708 338.68 404.058V366.368C348.123 365.245 357.72 365.975 366.83 368.511C375.94 371.046 384.355 375.328 391.513 381.072C398.672 386.816 404.409 393.889 408.344 401.82C412.278 409.751 414.319 418.358 414.331 427.067Z" fill="#17A589"/>
<path d="M465.319 310.06H402.841C400.536 310.057 398.326 309.219 396.696 307.728C395.066 306.237 394.15 304.216 394.147 302.108V298.15C394.15 296.042 395.066 294.021 396.696 292.53C398.326 291.04 400.536 290.201 402.841 290.199H465.319C467.624 290.201 469.834 291.04 471.464 292.53C473.094 294.021 474.011 296.042 474.013 298.15V302.108C474.011 304.216 473.094 306.237 471.464 307.728C469.834 309.219 467.624 310.057 465.319 310.06Z" fill="#17A589"/>
<path d="M471.902 302.43H409.424C407.004 302.427 404.683 301.547 402.972 299.981C401.261 298.416 400.298 296.294 400.295 294.08V290.123C400.298 287.909 401.261 285.787 402.972 284.222C404.683 282.656 407.004 281.776 409.424 281.773H471.902C474.323 281.776 476.643 282.656 478.354 284.222C480.066 285.787 481.028 287.909 481.031 290.123V294.08C481.028 296.294 480.066 298.416 478.354 299.981C476.643 301.547 474.323 302.427 471.902 302.43ZM409.424 283.364C407.465 283.366 405.586 284.078 404.201 285.346C402.815 286.613 402.036 288.331 402.034 290.123V294.08C402.036 295.872 402.815 297.59 404.201 298.857C405.586 300.125 407.465 300.837 409.424 300.839H471.902C473.862 300.837 475.74 300.125 477.125 298.857C478.511 297.59 479.29 295.872 479.292 294.08V290.123C479.29 288.331 478.511 286.613 477.125 285.346C475.74 284.078 473.862 283.366 471.902 283.364H409.424Z" fill="#0B2B3F"/>
<path d="M432.453 169C454.545 169 472.453 151.091 472.453 129C472.453 106.909 454.545 89 432.453 89C410.362 89 392.453 106.909 392.453 129C392.453 151.091 410.362 169 432.453 169Z" fill="white"/>
<path d="M444.347 165.8C466.568 165.8 484.581 149.324 484.581 129C484.581 108.676 466.568 92.2 444.347 92.2C422.126 92.2 404.112 108.676 404.112 129C404.112 149.324 422.126 165.8 444.347 165.8Z" fill="#17A589"/>
<path d="M461.015 145.034H427.678C427.068 145.034 426.484 144.812 426.053 144.418C425.622 144.024 425.379 143.489 425.379 142.931V124.531C425.379 123.974 425.622 123.439 426.053 123.045C426.484 122.651 427.068 122.429 427.678 122.429H461.015C461.625 122.429 462.209 122.651 462.64 123.045C463.071 123.439 463.314 123.974 463.314 124.531V142.931C463.314 143.489 463.071 144.024 462.64 144.418C462.209 144.812 461.625 145.034 461.015 145.034ZM427.678 124.531V142.931H461.017L461.015 124.531L427.678 124.531Z" fill="white"/>
<path d="M454.693 124.531H434V116.12C434 110.028 438.352 105.606 444.347 105.606C450.341 105.606 454.693 110.028 454.693 116.12L454.693 124.531ZM436.3 122.429H452.394V116.12C452.394 111.167 449.085 107.709 444.347 107.709C439.609 107.709 436.3 111.168 436.3 116.12L436.3 122.429Z" fill="white"/>
<path d="M444.347 135.309C445.616 135.309 446.646 134.367 446.646 133.206C446.646 132.044 445.616 131.103 444.347 131.103C443.077 131.103 442.047 132.044 442.047 133.206C442.047 134.367 443.077 135.309 444.347 135.309Z" fill="white"/>
<path d="M560.428 115.759H557.861V51.4357C557.861 46.5468 556.808 41.7058 554.763 37.1891C552.717 32.6723 549.719 28.5683 545.939 25.1113C542.159 21.6544 537.672 18.9121 532.733 17.0412C527.795 15.1703 522.501 14.2074 517.156 14.2074H368.152C362.806 14.2074 357.513 15.1703 352.575 17.0412C347.636 18.9121 343.149 21.6543 339.369 25.1113C335.589 28.5682 332.591 32.6722 330.545 37.189C328.499 41.7057 327.447 46.5467 327.447 51.4356V404.316C327.447 409.205 328.499 414.046 330.545 418.563C332.591 423.079 335.589 427.183 339.369 430.64C343.149 434.097 347.636 436.839 352.574 438.71C357.513 440.581 362.806 441.544 368.152 441.544H517.156C522.501 441.544 527.794 440.581 532.733 438.71C537.672 436.84 542.159 434.097 545.939 430.64C549.719 427.183 552.717 423.079 554.763 418.563C556.808 414.046 557.861 409.205 557.861 404.316V161.545H560.428V115.759Z" fill="#0B2B3F"/>
<mask id="mask0_127_1650" style="mask-type:alpha" maskUnits="userSpaceOnUse" x="338" y="24" width="212" height="408">
<path d="M549.196 51.796V404.163C549.196 407.814 548.41 411.429 546.882 414.802C545.354 418.175 543.114 421.24 540.291 423.821C537.468 426.402 534.116 428.449 530.427 429.846C526.739 431.242 522.786 431.96 518.794 431.959H369.072C365.081 431.959 361.129 431.24 357.441 429.843C353.754 428.446 350.403 426.399 347.581 423.818C344.759 421.237 342.52 418.172 340.993 414.8C339.466 411.427 338.68 407.813 338.68 404.163V51.796C338.68 48.1457 339.466 44.5311 340.993 41.1586C342.52 37.7861 344.759 34.7218 347.581 32.1406C350.403 29.5595 353.754 27.5121 357.441 26.1153C361.129 24.7185 365.081 23.9997 369.072 24H387.241C386.35 26.0057 386.01 28.1811 386.253 30.3348C386.496 32.4886 387.314 34.5548 388.635 36.3516C389.956 38.1484 391.74 39.6208 393.829 40.6394C395.918 41.6579 398.249 42.1914 400.616 42.1928H485.977C488.345 42.1949 490.678 41.6637 492.77 40.6461C494.861 39.6285 496.646 38.1558 497.968 36.358C499.29 34.5601 500.107 32.4924 500.349 30.3372C500.59 28.182 500.248 26.0056 499.352 24H518.794C522.786 23.9987 526.739 24.7167 530.427 26.113C534.116 27.5092 537.468 29.5565 540.291 32.1377C543.114 34.7189 545.354 37.7836 546.882 41.1566C548.41 44.5296 549.196 48.1449 549.196 51.796Z" fill="white"/>
</mask>
<g mask="url(#mask0_127_1650)">
<path d="M549.196 51.796V404.163C549.196 407.814 548.41 411.429 546.882 414.802C545.354 418.175 543.114 421.24 540.291 423.821C537.468 426.402 534.116 428.449 530.427 429.846C526.739 431.242 522.786 431.96 518.794 431.959H369.072C365.081 431.959 361.129 431.24 357.441 429.843C353.754 428.446 350.403 426.399 347.581 423.818C344.759 421.237 342.52 418.172 340.993 414.8C339.466 411.427 338.68 407.813 338.68 404.163V51.796C338.68 48.1457 339.466 44.5311 340.993 41.1586C342.52 37.7861 344.759 34.7218 347.581 32.1406C350.403 29.5595 353.754 27.5121 357.441 26.1153C361.129 24.7185 365.081 23.9997 369.072 24H387.241C386.35 26.0057 386.01 28.1811 386.253 30.3348C386.496 32.4886 387.314 34.5548 388.635 36.3516C389.956 38.1484 391.74 39.6208 393.829 40.6394C395.918 41.6579 398.249 42.1914 400.616 42.1928H485.977C488.345 42.1949 490.678 41.6637 492.77 40.6461C494.861 39.6285 496.646 38.1558 497.968 36.358C499.29 34.5601 500.107 32.4924 500.349 30.3372C500.59 28.182 500.248 26.0056 499.352 24H518.794C522.786 23.9987 526.739 24.7167 530.427 26.113C534.116 27.5092 537.468 29.5565 540.291 32.1377C543.114 34.7189 545.354 37.7836 546.882 41.1566C548.41 44.5296 549.196 48.1449 549.196 51.796Z" fill="white"/>
<path d="M509.206 227.17H377.606C375.185 227.167 372.865 226.287 371.154 224.721C369.442 223.156 368.48 221.034 368.477 218.82V214.863C368.48 212.649 369.442 210.527 371.154 208.962C372.865 207.396 375.185 206.516 377.606 206.513H509.206C511.627 206.516 513.947 207.396 515.658 208.962C517.37 210.527 518.332 212.649 518.335 214.863V218.82C518.332 221.034 517.37 223.156 515.658 224.721C513.947 226.287 511.627 227.167 509.206 227.17ZM377.606 208.104C375.646 208.106 373.768 208.818 372.383 210.086C370.997 211.353 370.218 213.071 370.216 214.863V218.82C370.218 220.612 370.997 222.33 372.383 223.597C373.768 224.865 375.646 225.577 377.606 225.579H509.206C511.166 225.577 513.044 224.865 514.429 223.597C515.815 222.33 516.594 220.612 516.596 218.82V214.863C516.594 213.071 515.815 211.353 514.429 210.086C513.044 208.818 511.166 208.106 509.206 208.104H377.606Z" fill="#0B2B3F"/>
<path d="M509.206 261.287H377.606C375.185 261.285 372.865 260.404 371.154 258.839C369.442 257.274 368.48 255.152 368.477 252.938V248.98C368.48 246.767 369.442 244.645 371.154 243.079C372.865 241.514 375.185 240.634 377.606 240.631H509.206C511.627 240.634 513.947 241.514 515.658 243.079C517.37 244.645 518.332 246.767 518.335 248.98V252.938C518.332 255.152 517.37 257.274 515.658 258.839C513.947 260.404 511.627 261.285 509.206 261.287ZM377.606 242.222C375.646 242.224 373.768 242.936 372.383 244.203C370.997 245.47 370.218 247.188 370.216 248.98V252.938C370.218 254.73 370.997 256.448 372.383 257.715C373.768 258.982 375.646 259.695 377.606 259.697H509.206C511.166 259.695 513.044 258.982 514.429 257.715C515.815 256.448 516.594 254.73 516.596 252.938V248.98C516.594 247.188 515.815 245.47 514.429 244.203C513.044 242.936 511.166 242.224 509.206 242.222H377.606Z" fill="#0B2B3F"/>
<path d="M549.196 51.6915V128.336C535.88 131.54 521.938 131.908 508.443 129.411C494.947 126.914 482.258 121.618 471.351 113.932C460.444 106.246 451.61 96.3744 445.529 85.0761C439.448 73.7778 436.282 61.3543 436.274 48.7614C436.274 46.5136 436.373 44.2893 436.571 42.0883H485.977C488.345 42.0904 490.678 41.5592 492.77 40.5416C494.861 39.524 496.646 38.0513 497.968 36.2535C499.29 34.4556 500.107 32.3879 500.349 30.2327C500.59 28.0775 500.248 25.9011 499.352 23.8955H518.793C522.785 23.8942 526.739 24.6122 530.427 26.0085C534.116 27.4047 537.468 29.452 540.291 32.0332C543.114 34.6144 545.354 37.6791 546.882 41.0521C548.41 44.4251 549.196 48.0404 549.196 51.6915Z" fill="#F4D03F"/>
<path d="M414.331 427.067C414.331 428.683 414.265 430.279 414.122 431.854H369.072C365.081 431.854 361.129 431.135 357.441 429.739C353.754 428.342 350.403 426.295 347.581 423.713C344.759 421.132 342.52 418.068 340.993 414.695C339.466 411.323 338.68 407.708 338.68 404.058V366.368C348.123 365.245 357.72 365.975 366.83 368.511C375.94 371.046 384.355 375.328 391.513 381.072C398.672 386.816 404.409 393.889 408.344 401.82C412.278 409.751 414.319 418.358 414.331 427.067Z" fill="#F4D03F"/>
<path d="M465.319 310.06H402.841C400.536 310.057 398.326 309.219 396.696 307.728C395.066 306.237 394.15 304.216 394.147 302.108V298.15C394.15 296.042 395.066 294.021 396.696 292.53C398.326 291.04 400.536 290.201 402.841 290.199H465.319C467.624 290.201 469.834 291.04 471.464 292.53C473.094 294.021 474.011 296.042 474.013 298.15V302.108C474.011 304.216 473.094 306.237 471.464 307.728C469.834 309.219 467.624 310.057 465.319 310.06Z" fill="#F4D03F"/>
<path d="M471.902 302.43H409.424C407.004 302.427 404.683 301.547 402.972 299.981C401.261 298.416 400.298 296.294 400.295 294.08V290.123C400.298 287.909 401.261 285.787 402.972 284.222C404.683 282.656 407.004 281.776 409.424 281.773H471.902C474.323 281.776 476.643 282.656 478.354 284.222C480.066 285.787 481.028 287.909 481.031 290.123V294.08C481.028 296.294 480.066 298.416 478.354 299.981C476.643 301.547 474.323 302.427 471.902 302.43ZM409.424 283.364C407.465 283.366 405.586 284.078 404.201 285.346C402.815 286.613 402.036 288.331 402.034 290.123V294.08C402.036 295.872 402.815 297.59 404.201 298.857C405.586 300.125 407.465 300.837 409.424 300.839H471.902C473.862 300.837 475.74 300.125 477.125 298.857C478.511 297.59 479.29 295.872 479.292 294.08V290.123C479.29 288.331 478.511 286.613 477.125 285.346C475.74 284.078 473.862 283.366 471.902 283.364H409.424Z" fill="#0B2B3F"/>
<path d="M437 169C459.091 169 477 151.091 477 129C477 106.909 459.091 89 437 89C414.909 89 397 106.909 397 129C397 151.091 414.909 169 437 169Z" fill="#17A589"/>
<path d="M418.657 125.094C418.657 124.43 419.195 123.892 419.859 123.892H423.067C423.993 123.892 424.571 124.894 424.109 125.696C423.894 126.068 423.497 126.297 423.067 126.297H419.859C419.195 126.297 418.657 125.759 418.657 125.094ZM426.443 115.739C427.092 116.399 428.212 116.109 428.46 115.217C428.576 114.796 428.456 114.345 428.145 114.039L425.873 111.769C425.181 111.155 424.083 111.521 423.897 112.428C423.821 112.799 423.924 113.184 424.175 113.467L426.443 115.739ZM437.501 111.863C438.165 111.863 438.703 111.325 438.703 110.661V107.453C438.703 106.527 437.701 105.949 436.899 106.412C436.527 106.626 436.298 107.023 436.298 107.453V110.661C436.298 111.325 436.836 111.863 437.501 111.863ZM447.706 116.091C448.026 116.092 448.333 115.965 448.558 115.739L450.826 113.467C451.44 112.774 451.074 111.676 450.167 111.491C449.796 111.415 449.411 111.518 449.128 111.769L446.856 114.039C446.202 114.694 446.502 115.811 447.397 116.051C447.498 116.078 447.602 116.091 447.706 116.091ZM450.731 125.094C450.731 125.759 451.27 126.297 451.934 126.297H455.142C456.068 126.297 456.646 125.295 456.183 124.493C455.969 124.121 455.571 123.892 455.142 123.892H451.934C451.27 123.892 450.731 124.43 450.731 125.094ZM429.482 126.297C430.146 126.297 430.685 125.759 430.685 125.094C430.687 119.847 436.369 116.571 440.912 119.197C443.018 120.414 444.315 122.662 444.316 125.094C444.316 126.02 445.319 126.599 446.121 126.136C446.493 125.921 446.722 125.524 446.722 125.094C446.719 117.996 439.032 113.562 432.886 117.114C430.036 118.761 428.28 121.803 428.279 125.094C428.279 125.759 428.818 126.297 429.482 126.297ZM459.388 148.148C459.173 148.519 458.778 148.748 458.349 148.75H416.652C415.731 148.749 415.153 147.757 415.605 146.955L423.762 132.522C423.976 132.144 424.377 131.91 424.811 131.91H450.19C450.624 131.91 451.025 132.144 451.239 132.522L459.396 146.955C459.604 147.326 459.601 147.78 459.388 148.148ZM449.489 134.316H443.875L444.747 138.325H451.764L449.489 134.316ZM442.284 138.325L441.412 134.316H433.593L432.721 138.325H442.284ZM432.194 140.731L430.973 146.344H444.028L442.807 140.731H432.194ZM423.245 138.325H430.262L431.134 134.316H425.521L423.245 138.325ZM418.713 146.344H428.512L429.732 140.731H421.886L418.713 146.344ZM456.288 146.344L453.115 140.731H445.269L446.49 146.344H456.288Z" fill="white"/>
<path d="M367.5 76C376.06 76 383 69.0604 383 60.5C383 51.9396 376.06 45 367.5 45C358.94 45 352 51.9396 352 60.5C352 69.0604 358.94 76 367.5 76Z" fill="#17A589"/>
<path d="M371.875 59.875H363.125C362.435 59.875 361.875 60.4346 361.875 61.125V65.5C361.875 66.1904 362.435 66.75 363.125 66.75H371.875C372.565 66.75 373.125 66.1904 373.125 65.5V61.125C373.125 60.4346 372.565 59.875 371.875 59.875Z" stroke="white" stroke-linecap="round" stroke-linejoin="round"/>
<path d="M364.375 59.875V57.375C364.375 56.5462 364.704 55.7513 365.29 55.1653C365.876 54.5792 366.671 54.25 367.5 54.25C368.329 54.25 369.124 54.5792 369.71 55.1653C370.296 55.7513 370.625 56.5462 370.625 57.375V59.875" stroke="white" stroke-linecap="round" stroke-linejoin="round"/>
</g>
<path d="M197.931 105.363C189.223 94.1469 171.994 93.6242 171.994 93.6242C171.994 93.6242 155.205 91.9877 144.436 109.07C134.397 124.993 148.541 144.785 148.541 144.785C151.337 144.938 163.423 145.005 199.392 140.941L201.004 132.992L205.627 140.241C207.549 140.026 209.548 139.804 211.638 139.573C210.692 131.138 206.311 116.156 197.931 105.363Z" fill="#0B2B3F"/>
<path d="M218.459 262.299L216.152 189.715L200.445 196L208.024 263.085C206.39 264.244 205.209 265.854 204.658 267.676C204.106 269.499 204.212 271.435 204.962 273.198C205.711 274.96 207.063 276.454 208.816 277.456C210.568 278.459 212.629 278.917 214.689 278.762C216.749 278.606 218.7 277.846 220.25 276.595C221.799 275.343 222.866 273.667 223.29 271.817C223.713 269.966 223.472 268.039 222.602 266.324C221.731 264.609 220.278 263.197 218.459 262.299Z" fill="#FFB8B8"/>
<path d="M197.991 199.143C208.235 200.049 215.592 196.179 220.569 188.369L217.133 173.979C217.133 169.298 215.502 164.739 212.477 160.963C209.451 157.187 205.189 154.392 200.309 152.982L198.482 152.455L197.991 199.143Z" fill="#EBC631"/>
<path d="M112.546 179.184C112.412 179.184 112.278 179.172 112.146 179.146L93.1979 178.854L93.1562 178.423L93.157 178.404L94.7292 142.694C94.7468 142.33 94.8428 141.972 95.0117 141.641C95.1807 141.31 95.4192 141.013 95.7138 140.766C96.0083 140.519 96.3531 140.328 96.7284 140.204C97.1037 140.079 97.5022 140.023 97.9011 140.04L113.078 140.659C113.477 140.675 113.868 140.763 114.23 140.917C114.592 141.072 114.916 141.29 115.186 141.56C115.455 141.829 115.664 142.144 115.8 142.487C115.936 142.831 115.997 143.195 115.979 143.56L114.486 177.478C114.466 177.936 114.253 178.37 113.891 178.688C113.53 179.006 113.048 179.184 112.546 179.184Z" fill="#17A589"/>
<path d="M110.481 179.21C110.433 179.21 110.384 179.208 110.336 179.206L95.4574 178.6C94.6127 178.564 93.8179 178.224 93.2473 177.653C92.6766 177.083 92.3767 176.328 92.4134 175.556L94.0027 142.95C94.0396 142.214 94.3942 141.521 94.9888 141.024C95.5835 140.526 96.3695 140.265 97.1746 140.297L112.352 140.916C113.157 140.95 113.914 141.274 114.458 141.818C115.002 142.362 115.288 143.081 115.253 143.817L113.664 176.423C113.627 177.172 113.276 177.88 112.683 178.399C112.09 178.919 111.302 179.209 110.481 179.21Z" fill="#0B2B3F"/>
<path d="M103.819 150.801C105.019 150.801 105.992 149.911 105.992 148.813C105.992 147.716 105.019 146.826 103.819 146.826C102.619 146.826 101.647 147.716 101.647 148.813C101.647 149.911 102.619 150.801 103.819 150.801Z" fill="#17A589"/>
<path d="M121.882 188.057V201.163L108.039 181.212C109.023 179.673 109.436 177.884 109.218 176.113C108.999 174.341 108.161 172.682 106.827 171.382C105.493 170.082 103.735 169.212 101.816 168.9C99.8968 168.589 97.919 168.853 96.1777 169.654C94.4363 170.455 93.0246 171.749 92.1533 173.344C91.282 174.938 90.9976 176.748 91.3427 178.503C91.6879 180.257 92.6439 181.863 94.0683 183.08C95.4926 184.296 97.3089 185.06 99.2462 185.255L118.598 216.617C119.607 218.252 121.16 219.55 123.032 220.321C124.904 221.093 126.996 221.298 129.004 220.906C131.012 220.514 132.831 219.547 134.195 218.144C135.56 216.741 136.399 214.976 136.591 213.106L138.986 189.748L121.882 188.057Z" fill="#FFB8B8"/>
<path d="M140.834 198.204C131.187 199.058 124.258 195.413 119.571 188.057L122.806 174.505C122.806 170.096 124.343 165.802 127.192 162.246C130.041 158.691 134.055 156.058 138.652 154.73L140.372 154.233L140.834 198.204Z" fill="#EBC631"/>
<path d="M163.2 433.06L152.645 431.493L154.228 393.512L169.806 395.824L163.2 433.06Z" fill="#FFB6B6"/>
<path d="M165.571 440.358L131.092 440.39L131.092 439.991C131.089 436.735 132.499 433.612 135.013 431.308C137.527 429.004 140.939 427.707 144.498 427.704L165.557 427.685L165.571 440.358Z" fill="#0B2B3F"/>
<path d="M213.64 410.943L204.093 415.349L180.972 383.765L195.062 377.264L213.64 410.943Z" fill="#FFB6B6"/>
<path d="M220.744 418.283L189.962 432.488L189.765 432.132C188.162 429.226 187.887 425.856 189 422.764C190.113 419.672 192.524 417.111 195.701 415.645L214.503 406.968L220.744 418.283Z" fill="#0B2B3F"/>
<path d="M170.811 141.508C181.178 141.508 189.581 133.822 189.581 124.34C189.581 114.859 181.178 107.173 170.811 107.173C160.445 107.173 152.042 114.859 152.042 124.34C152.042 133.822 160.445 141.508 170.811 141.508Z" fill="#FFB8B8"/>
<path d="M194.081 107.035L177.06 98.8796L153.554 102.216L148.691 121.862C172.697 125.019 189.312 126.83 194.892 121.491L194.081 107.035Z" fill="#0B2B3F"/>
<path d="M140.539 231.689C140.539 231.689 126.231 258.455 142.084 298.063L185.873 400.189L206.807 388.87L185.469 344.903L202.826 291.085C206.823 278.889 208.055 266.074 206.447 253.427C205.196 243.963 202.293 234.339 195.978 229.487C181.118 218.071 140.539 231.689 140.539 231.689Z" fill="#0B2B3F"/>
<path d="M164.476 337.127L148.601 410.742L169.743 414.388L183.043 350.668L164.476 337.127Z" fill="#0B2B3F"/>
<path d="M184.655 149.89L160.388 150.186L139.145 154.655L140.404 232.477C140.404 232.477 178.811 242.416 195.681 228.672L206.808 155.834C200.564 152.606 193.067 150.748 184.655 149.89Z" fill="#F4D03F"/>
<path d="M182.507 106.769C189.147 106.769 194.53 101.846 194.53 95.7723C194.53 89.699 189.147 84.7757 182.507 84.7757C175.867 84.7757 170.484 89.699 170.484 95.7723C170.484 101.846 175.867 106.769 182.507 106.769Z" fill="#0B2B3F"/>
<path d="M170.484 93.2345C170.483 91.6082 170.876 90.002 171.636 88.5316C172.396 87.0613 173.503 85.7635 174.878 84.7319C176.253 83.7004 177.861 82.9606 179.586 82.5661C181.311 82.1716 183.11 82.1322 184.853 82.4507C183.314 81.7865 181.638 81.429 179.937 81.4018C178.235 81.3746 176.546 81.6783 174.983 82.2928C173.419 82.9074 172.016 83.8186 170.866 84.9664C169.716 86.1142 168.846 87.4722 168.313 88.9506C167.78 90.429 167.597 91.9941 167.775 93.5422C167.953 95.0903 168.489 96.5861 169.347 97.9307C170.204 99.2752 171.365 100.438 172.75 101.341C174.136 102.245 175.716 102.869 177.385 103.173C175.323 102.286 173.578 100.88 172.356 99.1204C171.134 97.3607 170.485 95.3192 170.484 93.2345Z" fill="#0B2B3F"/>
</g>
<defs>
<clipPath id="clip0_127_1650">
<rect width="615.547" height="442" fill="white" transform="translate(0.453308)"/>
</clipPath>
</defs>
</svg>
