<svg width="16" height="16" viewBox="0 0 16 16" fill="none" xmlns="http://www.w3.org/2000/svg">
<g clip-path="url(#clip0_165_2484)">
<path d="M11.9325 11.7125C10.8641 12.5268 9.56316 12.978 8.21997 13C3.84497 13 1.34497 7.99995 1.34497 7.99995C2.1224 6.55114 3.20068 5.28533 4.50747 4.28745M6.90747 3.14995C7.33768 3.04925 7.77814 2.99892 8.21997 2.99995C12.595 2.99995 15.095 7.99995 15.095 7.99995C14.7156 8.70971 14.2631 9.37791 13.745 9.9937M9.54497 9.32495C9.37331 9.50917 9.16631 9.65693 8.93632 9.75941C8.70632 9.86189 8.45803 9.91699 8.20628 9.92143C7.95452 9.92588 7.70445 9.87956 7.47098 9.78526C7.23751 9.69096 7.02542 9.5506 6.84737 9.37255C6.66933 9.1945 6.52897 8.98242 6.43466 8.74895C6.34036 8.51548 6.29405 8.26541 6.29849 8.01365C6.30293 7.76189 6.35804 7.51361 6.46052 7.28361C6.563 7.05361 6.71075 6.84661 6.89497 6.67495" stroke="#0B2B3F" strokeLinecap="round" strokeLinejoin="round"/>
<path d="M1.34497 1.125L15.095 14.875" stroke="#0B2B3F" strokeLinecap="round" strokeLinejoin="round"/>
</g>
<defs>
<clipPath id="clip0_165_2484">
<rect width="15" height="15" fill="white" transform="translate(0.719971 0.5)"/>
</clipPath>
</defs>
</svg>
